<svg viewBox="0 0 1022 288" xmlns="http://www.w3.org/2000/svg" fill-rule="evenodd" clip-rule="evenodd"><path d="M391.605 287.795h-109.955v-92.62h156.97c3.27-4.288 6.041-8.942 8.342-14.015h-310.114v106.635h-79.534v-122.063h394.852a95.3 95.3 0 0 0 2.092-13.99h-454.258v-15.427h454.257a90.195 90.195 0 0 0-2.17-13.99h-394.774v-122.324h195.153v66.732h-115.62v40.164h309.934c-2.327-5.072-5.099-9.753-8.341-14.015h-156.789v-92.88h109.955c19.455 0 37.707 3.948 54.782 11.818 17.049 7.897 31.98 18.383 44.74 31.51l.524.549.078.052.105.105.209.235.157.183.104.105.079.078.104.105.314.34.105.104c.183.21.366.393.549.576l.026.026.105.13.261.262.13.157.08.104.078.079.157.157.235.261.104.131.053.026c.157.21.34.392.523.575v.027l.078.078.34.366.079.105.078.078.105.13.157.184.209.21.104.13.053.052.078.105.392.444.026.053c.183.183.34.392.497.575l.053.052.104.13.21.236.156.183.079.105.078.105.105.104.287.34.079.105.026.026.497.601.026.026.105.131.235.314.13.13.08.105.078.105.13.157.21.261.104.13.052.053.471.602h.026l.052.104.314.392.105.105.052.079.105.13.157.21.157.209.104.13.052.079.079.104.314.393.078.104.47.602.053.078.105.13.183.262.13.157.079.131.078.105.105.13.235.314.105.13.026.053.445.602.026.026.104.157.236.313.078.131.079.105.104.13.105.157.183.236.104.157.053.078.052.079.392.549.105.13.261.393.053.078.078.105.105.157.13.209.131.183.105.157.078.104.052.079.236.34.13.183v.026c.157.209.288.392.419.601l.052.079.13.183.158.235.078.157.105.13.078.158.079.104.183.262.13.209.053.052c.13.21.235.419.366.602l.052.052.131.235.183.262.052.104.079.131.13.183.079.13.13.184.131.235.053.105.052.052.183.314.157.261.183.288.157.262.026.052.078.13.157.21.079.157.078.157.131.209.105.157.026.052.13.21.184.313.287.47.157.288.157.288.105.157.052.078.104.21.131.209.052.078.079.13.837 1.491.052.105.026.052.105.183.157.288.052.078.026.079.183.314.105.183.915 1.725.21.393.13.235h91.39v-14.094h-74.106v-63.36h222.527v48.036h102.083l15.481-48.036 34.752 107.786 113.25-.262-91.755 66.366 35.222 107.628-91.468-66.758-91.469 66.758 13.597-41.498h-113.8v47.774h-74.314v-63.202h193.161l4.576-13.99h-289.206a96.056 96.056 0 0 1-1.202 2.276l-.027.026v.026l-.183.314-.13.235v.026l-.916 1.621-.026.079-.052.052-.13.262-.132.209-.026.026-.052.105c-.288.496-.575.993-.863 1.464l-.052.13-.052.08-.131.208-.13.21-.027.078-.079.13-.836 1.36-.105.157-.052.105-.105.183-.13.183-.053.105-.104.156-.157.262-.079.105v.026l-.183.287-.209.314-.183.288-.13.209-.053.078-.105.157-.104.183-.079.131-.13.183-.131.21-.079.104-.026.052-.261.392-.105.183-.157.236-.183.261-.052.079-.079.13-.13.183-.105.157-.13.183-.131.183-.053.105-.052.052-.261.419-.105.157-.13.157-.236.34-.052.078-.079.105-.104.183-.131.183-.131.183-.13.157-.053.104-.052.079-.288.392-.105.13-.078.105-.288.419-.052.078-.078.105-.105.156-.13.183-.158.21-.104.13-.052.105-.079.078-.288.393-.078.104-.026.026c-.13.21-.288.393-.445.602l-.052.078-.105.131-.156.235-.157.183-.079.131-.078.079-.079.13-.287.34-.079.131-.026.026a8.516 8.516 0 0 0-.444.575l-.053.079-.104.13-.21.262-.13.157-.079.13-.078.08-.105.13-.261.34-.105.105-.026.026-.47.601-.027.052-.104.105-.236.288-.104.157-.105.104-.078.105-.105.13-.262.314-.078.105-.052.052-.47.575-.027.053-.105.104-.261.314-.105.13-.078.105-.105.105-.13.157-.236.261-.104.131-.027.026-.496.576-.027.052-.078.078-.314.34-.104.131-.079.078-.078.105-.157.183-.236.235-.104.131-.026.052c-.183.183-.34.367-.523.576l-.079.078-.34.366-.104.131-.053.078-.104.105-.157.183-.235.235-.079.105-.052.052c-.183.183-.366.366-.55.576l-.025.052-.393.392-.104.105-.053.078-.104.105-.183.209-.21.21-.104.104-.052.052-.55.575c-12.76 13.232-27.665 23.796-44.74 31.666a10.61 10.61 0 0 1-.784.367l-.314.13-.497.236-.392.183-.419.183-.523.209-.261.13-.68.288-.13.053c-15.925 6.72-32.974 10.067-51.148 10.067zm25.417-74.001l.026-.026.418-.236.053-.026.366-.209.078-.052.366-.21.079-.052.366-.209.078-.052.34-.183.105-.079.314-.209.104-.052.34-.21.079-.052.34-.209.078-.052.366-.21.052-.052.366-.235.053-.052.392-.236.026-.026.418-.261h-66.26v13.832h17.075c2.876 0 5.726-.104 8.472-.313l.889-.079.863-.078h.052l.863-.079.837-.078.052-.026.837-.079.837-.104h.052l.81-.131h.079l.784-.105h.027l.81-.13h.105l.758-.131h.026l.758-.131.131-.026.785-.13.758-.158.13-.026.733-.157h.052l.706-.13.131-.053.732-.157.105-.026.653-.13.131-.027.706-.183.131-.026.654-.157.104-.026.706-.183.157-.052.654-.183h.052l.706-.21.157-.026.68-.209.052-.026.654-.183.157-.052.68-.21.078-.026.628-.209.13-.052.654-.21.131-.052.601-.209.105-.026.654-.235.157-.053.601-.235.079-.026.653-.262.157-.052.654-.261.47-.184.184-.078.313-.13.183-.08.288-.13.21-.078.287-.131.209-.079.262-.13.209-.079.261-.13.21-.079.26-.13.21-.08.262-.13.209-.104.261-.105.21-.105.26-.13.21-.079.262-.13.183-.105.287-.13.183-.08.262-.156.183-.079.287-.157.157-.078.34-.157.131-.078.366-.183.079-.053a60.63 60.63 0 0 0 1.804-.967zm110.27-32.634a137.094 137.094 0 0 1-4.603 14.016h287.27l4.577-14.016h-287.246zm259.003-29.417h-254.245a145.67 145.67 0 0 1-1.464 13.99h275.06l-19.35-13.99zm-255.657-29.418a137.726 137.726 0 0 1 1.412 13.99h232.908l-19.35-13.99h-214.97zm-7.844-29.443a143.65 143.65 0 0 1 4.576 14.015h311.327l4.498-14.015h-320.401zm329.893-29.418h-171.196v13.99h166.698l4.498-13.99zm-479.647-.104h-17.076v14.094h66.288l-.419-.262-.052-.052-.366-.235-.079-.052-.34-.236-.104-.052-.34-.21-.105-.078-.313-.209-.105-.052-.34-.21-.105-.078-.34-.21-.078-.051-.392-.236-.052-.026-.445-.261-.445-.262-.026-.026-.418-.235-.105-.053-.34-.209-.13-.078-.314-.157-.157-.105-.288-.157-.157-.078-.287-.157-.183-.105-.288-.13-.183-.105-.261-.157-.183-.078-.288-.157-.183-.079-.288-.156-.157-.079-.366-.183-.104-.052-.471-.236-.078-.026-.393-.209-.157-.078-.313-.131-.183-.105-.288-.13-.21-.079-.26-.13-.21-.105-.261-.105-.21-.104-.287-.131-.21-.079-.287-.13-.21-.079-.26-.13-.21-.079-.314-.13-.183-.08-.34-.13-.157-.078-.496-.183-.654-.262-.13-.078-.655-.236-.078-.026-.601-.235-.157-.053-.654-.235-.105-.026-.575-.21-.13-.051-.68-.236-.131-.026-.576-.21-.13-.025-.654-.21-.157-.052-.601-.183-.105-.026-.68-.21-.157-.025-.653-.21h-.053l-.68-.183-.156-.052-.706-.183h-.053l-.654-.183-.156-.026-.706-.183h-.105l-.601-.157-.183-.026-.68-.157-.157-.026-.602-.131-.157-.052-.706-.131-.156-.026-.602-.13-.157-.027-.706-.105-.157-.052-.653-.105-.105-.026-.706-.104-.183-.026-.758-.131-.733-.105-.183-.026-.732-.078-.078-.027-.706-.078-.157-.026-.758-.079-.105-.026-.68-.052-.13-.026-.785-.079h-.105l-.758-.078h-.078l-.785-.078c-2.772-.21-5.622-.314-8.524-.314z" fill="#fff"/></svg>