<svg viewBox="0 0 240 46" xmlns="http://www.w3.org/2000/svg" fill-rule="evenodd" clip-rule="evenodd"><path d="M4.154 8.014v5.771h-3.1v-13.765h10.12v2.554h-7.02v2.965h6.162v2.476h-6.162zm13.046-8.005c.818 0 1.621.064 2.407.194a5.118 5.118 0 0 1 2.214.955c.454.339.842.726 1.16 1.161.318.436.575.904.77 1.405.195.5.338 1.02.43 1.559.09.54.136 1.082.136 1.629 0 .65-.071 1.297-.214 1.94a7.232 7.232 0 0 1-.664 1.813c-.3.565-.68 1.077-1.14 1.531a5.013 5.013 0 0 1-1.649 1.072 5.987 5.987 0 0 1-1.754.43c-.598.051-1.203.077-1.814.077h-4.426v-13.766h4.544zm-1.463 11.212h.916a14.5 14.5 0 0 0 1.59-.088 3.041 3.041 0 0 0 1.403-.506c.41-.28.742-.719.996-1.317.253-.597.38-1.443.38-2.535a8.76 8.76 0 0 0-.069-1.044 5.357 5.357 0 0 0-.244-1.071 3.637 3.637 0 0 0-.488-.956 2.218 2.218 0 0 0-.799-.693 3.274 3.274 0 0 0-1.385-.38 23.32 23.32 0 0 0-1.462-.05h-.838v8.64zm15.795 2.561h-3.082v-11.212h-4.114v-2.554h11.309v2.554h-4.114v11.212zm10.549-13.773h3.1v13.767h-3.1zm11.135 13.773v-5.947c0-.246-.026-.483-.078-.711a1.927 1.927 0 0 0-.253-.614 1.346 1.346 0 0 0-.46-.439c-.187-.112-.424-.167-.71-.167-.339 0-.622.069-.848.206a1.501 1.501 0 0 0-.537.535 2.32 2.32 0 0 0-.273.732 4.209 4.209 0 0 0-.079.81v5.595h-2.886v-10.1h2.809v1.17a3.698 3.698 0 0 1 1.219-1.043c.46-.24.984-.361 1.57-.361.377 0 .75.052 1.12.156.372.103.706.273 1.005.507.571.441.94.959 1.102 1.55.162.592.243 1.232.243 1.92v6.201h-2.944zm11.212 0v-.975a2.377 2.377 0 0 1-1.17.956c-.48.182-.98.274-1.501.274-.715 0-1.343-.15-1.883-.449a4.109 4.109 0 0 1-1.344-1.19 5.436 5.436 0 0 1-.81-1.676 6.735 6.735 0 0 1-.272-1.892c0-.69.088-1.36.262-2.009.176-.65.446-1.225.81-1.726.363-.5.825-.903 1.384-1.209.56-.306 1.222-.458 1.989-.458.456 0 .885.078 1.288.234.402.157.78.384 1.13.683v-4.329h2.906v13.766h-2.789zm-.02-4.99c0-.339-.025-.688-.077-1.044a3.278 3.278 0 0 0-.293-.975 1.789 1.789 0 0 0-.614-.712c-.266-.182-.607-.273-1.023-.273-.39 0-.716.091-.975.273a2.03 2.03 0 0 0-.624.702c-.157.286-.267.6-.333.945a5.413 5.413 0 0 0-.097.985c0 .352.03.702.088 1.054a2.9 2.9 0 0 0 .322.945c.155.28.367.51.634.692.266.183.608.274 1.024.274.402 0 .73-.088.984-.264.253-.176.456-.4.605-.672a2.8 2.8 0 0 0 .302-.927c.052-.345.078-.678.078-1.003zm10.803 4.99v-1.11a2.194 2.194 0 0 1-.545.603 3.42 3.42 0 0 1-.711.42 4.175 4.175 0 0 1-1.61.342c-.793 0-1.413-.143-1.862-.43a2.743 2.743 0 0 1-1.005-1.092 4.258 4.258 0 0 1-.418-1.443 13.539 13.539 0 0 1-.088-1.5v-5.89h2.866v5.79c0 .275.02.543.058.81a2.1 2.1 0 0 0 .225.702c.11.202.27.364.477.488.209.123.482.186.82.186.364 0 .659-.071.887-.215a1.45 1.45 0 0 0 .526-.575c.124-.241.209-.526.254-.859a7.72 7.72 0 0 0 .068-1.062v-5.265h2.789v10.1h-2.73zm6.729-3.547c.09.661.308 1.107.653 1.335.344.227.842.341 1.492.341.155 0 .317-.01.487-.03.169-.019.325-.065.468-.136a.958.958 0 0 0 .35-.293.783.783 0 0 0 .138-.477c0-.3-.15-.523-.449-.673-.3-.15-.67-.273-1.112-.37l-1.443-.313c-.52-.11-1-.279-1.443-.507a3.262 3.262 0 0 1-1.112-.926c-.298-.39-.447-.922-.447-1.599 0-.598.122-1.099.37-1.501a3.05 3.05 0 0 1 .966-.985 4.119 4.119 0 0 1 1.355-.546 7.13 7.13 0 0 1 3.139.02c.52.123.98.321 1.385.594.402.273.735.628.994 1.063.26.435.402.966.43 1.589l-2.691.137a1.438 1.438 0 0 0-.187-.683 1.516 1.516 0 0 0-.964-.702 2.56 2.56 0 0 0-.625-.077l-.448.028c-.169.02-.322.06-.458.118a.976.976 0 0 0-.352.253c-.097.11-.146.263-.146.458 0 .26.154.456.46.586.305.13.685.243 1.14.341l1.481.322a6.021 6.021 0 0 1 1.482.526c.456.234.836.552 1.142.956.305.402.457.936.457 1.598 0 .651-.132 1.194-.4 1.629a3.057 3.057 0 0 1-1.052 1.043c-.435.26-.926.445-1.471.556a8.266 8.266 0 0 1-1.638.166c-.534 0-1.08-.066-1.639-.195a4.807 4.807 0 0 1-1.511-.625 3.487 3.487 0 0 1-1.102-1.12c-.286-.463-.429-1.025-.429-1.688v-.117l2.73-.096zm11.328-4.368v4.543c0 .416.066.716.196.898.13.182.43.273.897.273a7.76 7.76 0 0 0 .78-.04v2.223a13.975 13.975 0 0 1-1.97.138c-.585 0-1.06-.07-1.423-.205-.364-.137-.647-.341-.848-.614a2.278 2.278 0 0 1-.4-.996 8.168 8.168 0 0 1-.098-1.344v-4.876h-1.442v-2.184h1.443v-2.982h2.866v2.982h1.776v2.184h-1.776zm5.948-.522c.273-.702.622-1.186 1.043-1.453.424-.265.947-.4 1.57-.4h.206l.3.04v2.612a3.382 3.382 0 0 0-.68-.058c-.52 0-.933.085-1.239.254-.306.17-.537.387-.693.652a2.405 2.405 0 0 0-.301.889 6.644 6.644 0 0 0-.069.936v4.971h-2.945v-10.1h2.808v1.657zm6.806 8.437h-2.847v-10.1h2.847v10.1zm0-11.172h-2.847v-2.594h2.847v2.594zm4.29 6.954c.091.623.312 1.14.663 1.55.35.41.858.614 1.52.614.456 0 .83-.085 1.122-.253.293-.17.55-.443.77-.82l2.886.195c-.363 1.08-.984 1.886-1.861 2.418-.878.534-1.876.8-2.994.8-.793 0-1.508-.134-2.145-.4a4.532 4.532 0 0 1-1.61-1.111 4.934 4.934 0 0 1-1.003-1.687 6.287 6.287 0 0 1-.351-2.145c0-.755.12-1.457.36-2.107a5.022 5.022 0 0 1 1.035-1.696 4.81 4.81 0 0 1 1.608-1.13c.625-.274 1.325-.41 2.106-.41.846 0 1.579.15 2.203.449a4.3 4.3 0 0 1 1.55 1.228c.41.52.716 1.124.917 1.813a7.8 7.8 0 0 1 .303 2.204v.488h-7.079zm4.056-2.184c-.052-.508-.247-.924-.586-1.25-.337-.324-.766-.487-1.286-.487-.625 0-1.102.144-1.433.43-.332.286-.575.721-.731 1.307h4.036zm6.396 2.855c.091.661.309 1.107.653 1.335.345.227.842.341 1.492.341.155 0 .318-.01.488-.03.168-.019.325-.065.468-.136a.958.958 0 0 0 .35-.293.783.783 0 0 0 .137-.477c0-.3-.149-.523-.448-.673-.3-.15-.67-.273-1.112-.37l-1.443-.313c-.52-.11-1-.279-1.443-.507a3.243 3.243 0 0 1-1.11-.926c-.3-.39-.45-.922-.45-1.599 0-.598.124-1.099.37-1.501a3.05 3.05 0 0 1 .966-.985 4.119 4.119 0 0 1 1.355-.546 7.13 7.13 0 0 1 3.14.02c.52.123.982.321 1.384.594.403.273.735.628.994 1.063.261.435.404.966.43 1.589l-2.69.137a1.438 1.438 0 0 0-.187-.683 1.516 1.516 0 0 0-.965-.702 2.56 2.56 0 0 0-.624-.077l-.449.028c-.168.02-.322.06-.458.118a.976.976 0 0 0-.351.253c-.097.11-.146.263-.146.458 0 .26.153.456.459.586.305.13.685.243 1.14.341l1.482.322a6.021 6.021 0 0 1 1.481.526c.456.234.837.552 1.142.956.306.402.458.936.458 1.598 0 .651-.133 1.194-.4 1.629a3.065 3.065 0 0 1-1.052 1.043 4.71 4.71 0 0 1-1.473.556 8.255 8.255 0 0 1-1.638.166c-.534 0-1.08-.066-1.638-.195a4.807 4.807 0 0 1-1.512-.625 3.487 3.487 0 0 1-1.101-1.12c-.286-.463-.43-1.025-.43-1.688v-.117l2.731-.096zm-117.39 30.378h-1.853v-13.766h8.814v1.697h-6.96v4.191h6.355v1.62h-6.356v6.258zm17.062-5.038c0 .793-.103 1.511-.312 2.155a4.42 4.42 0 0 1-.936 1.647 4.175 4.175 0 0 1-1.53 1.054c-.604.246-1.31.37-2.116.37-.82 0-1.525-.13-2.117-.39a4.068 4.068 0 0 1-1.47-1.072c-.391-.455-.678-1-.86-1.638a7.574 7.574 0 0 1-.272-2.086c0-.78.1-1.495.302-2.146.202-.65.504-1.21.907-1.677a4.054 4.054 0 0 1 1.52-1.091c.611-.261 1.32-.39 2.126-.39.806 0 1.505.133 2.097.399.59.266 1.085.635 1.482 1.103a4.61 4.61 0 0 1 .887 1.666c.195.644.292 1.343.292 2.096zm-1.832 0c0-.493-.052-.967-.157-1.424a3.49 3.49 0 0 0-.517-1.209c-.24-.35-.551-.63-.936-.837-.383-.209-.848-.313-1.394-.313-.559 0-1.03.107-1.413.322-.384.214-.69.5-.917.858-.228.358-.39.766-.487 1.229a6.886 6.886 0 0 0-.146 1.434c0 .506.05.983.155 1.432.104.449.273.845.507 1.19.234.344.547.617.936.82.39.2.864.3 1.423.3.56 0 1.027-.107 1.405-.322.377-.213.68-.496.906-.848.228-.35.39-.757.487-1.218a6.77 6.77 0 0 0 .148-1.414zm5.537-5.068v1.716c.26-.585.628-1.03 1.102-1.336.474-.306 1.03-.458 1.667-.458a3.785 3.785 0 0 1 .78.078v1.716a6.182 6.182 0 0 0-.292-.029 2.99 2.99 0 0 0-1.2.136 2.872 2.872 0 0 0-.828.419c-.273.208-.485.44-.634.693a3.251 3.251 0 0 0-.341.81 4.462 4.462 0 0 0-.146.886c-.02.306-.03.614-.03.926v4.543h-1.754v-10.1h1.676zm9.321 0v1.482h-1.814v5.616c0 .207.008.406.02.595.013.188.06.358.137.507a.823.823 0 0 0 .351.35c.155.085.37.128.643.128l.41-.01c.143-.006.279-.03.41-.069v1.443a12.17 12.17 0 0 1-.614.098 5.099 5.099 0 0 1-.635.04c-.884 0-1.52-.193-1.911-.576-.39-.383-.585-1.005-.585-1.862v-6.26h-1.677v-1.482h1.677v-3.023h1.774v3.023h1.814zm3.783-1.655h-1.775v-2.008h1.775v2.008zm0 11.758h-1.775v-10.1h1.775v10.1zm4.895-8.613v8.62h-1.775v-8.62h-1.638v-1.481h1.638v-.76c0-1.014.231-1.76.692-2.233.462-.474 1.22-.713 2.272-.713l.44.021.438.039v1.52a3.15 3.15 0 0 0-.39-.02h-.39c-.495 0-.832.086-1.014.254-.181.169-.274.501-.274.994v.898h2.068v1.481h-2.068zm7.956 9.048c-.157.443-.312.853-.468 1.229a3.63 3.63 0 0 1-.595.985c-.24.28-.542.498-.906.653-.365.156-.826.234-1.385.234a6.08 6.08 0 0 1-1.346-.155v-1.658c.22.04.432.084.634.136.202.052.412.079.633.079.286 0 .525-.046.713-.137.187-.091.347-.215.477-.371.13-.155.241-.334.332-.535.09-.202.176-.413.253-.634l.097-.255-4.017-10.1h1.99l2.847 7.878 2.555-7.878h1.93l-3.744 10.53zm15.326-14.205c.378 0 .758.009 1.142.028.383.02.763.075 1.14.166.807.183 1.482.481 2.028.897a5.17 5.17 0 0 1 1.337 1.503 6.42 6.42 0 0 1 .74 1.939c.15.71.224 1.44.224 2.194 0 .675-.055 1.342-.165 1.999a7.093 7.093 0 0 1-.576 1.853 5.713 5.713 0 0 1-1.082 1.559c-.448.462-1.01.829-1.687 1.102a6.073 6.073 0 0 1-1.93.448c-.703.052-1.366.078-1.989.078h-3.724v-13.766h4.543zm-2.71 12.129h1.911c.442 0 .937-.016 1.482-.05a4.938 4.938 0 0 0 1.443-.282c.534-.208.969-.497 1.307-.868a4.38 4.38 0 0 0 .8-1.248 5.79 5.79 0 0 0 .399-1.472c.071-.52.107-1.033.107-1.54 0-1.704-.4-2.97-1.198-3.803-.8-.831-1.928-1.249-3.384-1.249h-2.867v10.513zm12.987-2.783c0 .416.062.812.186 1.19.124.377.309.71.556 1.004.246.292.549.526.906.702.358.175.77.263 1.239.263.702 0 1.27-.169 1.705-.507.436-.339.719-.838.848-1.501l1.834.135c-.091.573-.27 1.066-.537 1.484-.267.415-.595.76-.984 1.033a4.28 4.28 0 0 1-1.346.614 6.25 6.25 0 0 1-1.638.204c-.857 0-1.583-.152-2.175-.458a4.058 4.058 0 0 1-1.432-1.2 4.718 4.718 0 0 1-.78-1.666 7.628 7.628 0 0 1-.234-1.883c0-.727.1-1.41.301-2.046a4.852 4.852 0 0 1 .908-1.677 4.364 4.364 0 0 1 1.482-1.142c.584-.279 1.26-.419 2.029-.419.78 0 1.448.134 2.007.4a3.877 3.877 0 0 1 1.394 1.103c.371.468.644 1.013.82 1.636.174.625.262 1.302.262 2.029v.273l-.019.273h-7.332v.156zm5.48-1.6a3.535 3.535 0 0 0-.195-1.062 2.678 2.678 0 0 0-.497-.868 2.287 2.287 0 0 0-.79-.584 2.543 2.543 0 0 0-1.072-.215c-.884 0-1.558.25-2.019.75-.462.5-.764 1.161-.907 1.98h5.48zm16.068 6.027v-5.692c0-.339-.01-.686-.03-1.044a3.245 3.245 0 0 0-.194-.975 1.543 1.543 0 0 0-.536-.712c-.248-.182-.598-.273-1.054-.273-.441 0-.818.074-1.13.224a2.04 2.04 0 0 0-.762.614c-.193.26-.337.566-.428.916-.09.352-.137.722-.137 1.112v5.83h-1.793v-6.532c0-.624-.143-1.14-.43-1.55-.285-.41-.78-.614-1.482-.614-.766 0-1.364.264-1.794.79-.429.526-.643 1.283-.643 2.272v5.634h-1.755v-10.1h1.755v1.209a3.244 3.244 0 0 1 1.316-1.053 4.161 4.161 0 0 1 1.668-.332 3.2 3.2 0 0 1 1.589.4c.474.266.842.666 1.101 1.2.364-.52.816-.917 1.355-1.19a3.818 3.818 0 0 1 1.746-.41c.663 0 1.212.085 1.648.253.436.17.786.42 1.053.752.267.33.454.731.565 1.2a7.08 7.08 0 0 1 .167 1.617v6.454h-1.795zm13.435-5.038c0 .793-.103 1.511-.312 2.155a4.4 4.4 0 0 1-.936 1.647 4.175 4.175 0 0 1-1.53 1.054c-.604.246-1.31.37-2.116.37-.82 0-1.525-.13-2.115-.39a4.06 4.06 0 0 1-1.473-1.072c-.39-.455-.677-1-.858-1.638a7.574 7.574 0 0 1-.273-2.086c0-.78.101-1.495.302-2.146.202-.65.504-1.21.907-1.677a4.08 4.08 0 0 1 1.522-1.092c.61-.261 1.319-.39 2.124-.39.806 0 1.505.133 2.097.399a4.142 4.142 0 0 1 1.482 1.103 4.61 4.61 0 0 1 .887 1.666c.195.644.292 1.343.292 2.096zm-1.832 0c0-.493-.052-.967-.157-1.424a3.49 3.49 0 0 0-.517-1.209c-.24-.35-.551-.63-.936-.837-.383-.209-.848-.313-1.394-.313-.559 0-1.03.107-1.413.322-.384.214-.69.5-.917.858-.228.358-.39.766-.487 1.229a6.886 6.886 0 0 0-.146 1.434c0 .506.052.983.155 1.432.104.449.273.845.507 1.19.234.344.547.617.936.82.39.2.864.3 1.423.3.56 0 1.027-.107 1.405-.322.377-.213.68-.496.907-.848.227-.35.39-.757.488-1.218a6.86 6.86 0 0 0 .146-1.414zm12.44 1.431c-.402 2.535-1.878 3.802-4.427 3.802-.793 0-1.478-.135-2.057-.408a4.048 4.048 0 0 1-1.443-1.122 4.639 4.639 0 0 1-.848-1.677 7.522 7.522 0 0 1-.273-2.057c0-.728.094-1.41.284-2.047.188-.638.477-1.19.867-1.658a4.17 4.17 0 0 1 1.463-1.112c.584-.272 1.267-.41 2.048-.41 1.156 0 2.101.278 2.836.83.735.552 1.187 1.42 1.355 2.603l-1.812.273c-.08-.688-.325-1.236-.743-1.638-.416-.402-.975-.605-1.677-.605-.518 0-.958.112-1.316.332-.356.22-.642.513-.857.877a3.927 3.927 0 0 0-.46 1.21 6.887 6.887 0 0 0 0 2.719c.092.449.245.85.46 1.2.215.35.504.636.868.858.363.221.818.331 1.365.331.78 0 1.383-.23 1.813-.691.429-.462.682-1.057.76-1.785l1.794.175zm3.472-6.499v1.716c.26-.585.626-1.03 1.102-1.336.474-.306 1.03-.458 1.666-.458a3.806 3.806 0 0 1 .781.078v1.716a6.236 6.236 0 0 0-.293-.029 2.983 2.983 0 0 0-1.198.136 2.853 2.853 0 0 0-.83.419c-.272.208-.484.44-.633.693-.15.253-.264.523-.341.81a4.357 4.357 0 0 0-.147.886c-.02.306-.03.614-.03.926v4.543h-1.754v-10.1h1.677zm12.479 10.106c-.481 0-.867-.074-1.16-.223-.293-.15-.458-.498-.497-1.044-.441.495-.926.862-1.453 1.102-.527.241-1.121.36-1.785.36-.493 0-.948-.064-1.364-.195a3.058 3.058 0 0 1-1.082-.584 2.635 2.635 0 0 1-.712-.975c-.169-.39-.254-.845-.254-1.365 0-.573.102-1.033.303-1.385.201-.35.474-.63.818-.838a4.266 4.266 0 0 1 1.17-.478c.436-.11.887-.21 1.355-.301l1.834-.352.419-.078c.137-.027.258-.068.36-.126.105-.06.19-.14.255-.245.064-.104.097-.253.097-.449 0-.35-.062-.633-.185-.848a1.436 1.436 0 0 0-.506-.516 2.038 2.038 0 0 0-.723-.263 4.95 4.95 0 0 0-.849-.069c-.65 0-1.176.143-1.578.43-.404.286-.605.779-.605 1.481h-1.813c0-.312.05-.636.155-.975.143-.468.352-.854.625-1.16a3.07 3.07 0 0 1 .945-.721c.357-.176.748-.3 1.17-.371a7.768 7.768 0 0 1 1.297-.107c.325 0 .657.022.994.068.338.046.657.127.955.245.3.116.576.275.83.477.253.2.458.457.613.77.143.298.231.63.264.994s.05.716.05 1.053v4.135c0 .207.005.389.019.545a.88.88 0 0 0 .116.39.602.602 0 0 0 .303.235c.137.052.328.077.575.077v1.306h-.956zm-1.715-5.224c-.416.141-.84.262-1.267.36l-1.288.282a11.6 11.6 0 0 0-.78.186c-.26.07-.495.169-.702.293a1.54 1.54 0 0 0-.507.477c-.13.195-.195.448-.195.76 0 .274.055.514.166.721.11.209.26.377.448.508.188.13.4.227.634.293.234.064.474.097.721.097.248 0 .507-.036.78-.108.274-.071.514-.171.723-.3.545-.34.893-.746 1.042-1.22.15-.474.225-1.01.225-1.609v-.74zm13.005 1.617c-.402 2.535-1.878 3.802-4.425 3.802-.793 0-1.479-.135-2.057-.408a4.048 4.048 0 0 1-1.443-1.122 4.616 4.616 0 0 1-.848-1.677 7.521 7.521 0 0 1-.275-2.057c0-.728.096-1.41.284-2.047.189-.638.478-1.19.867-1.658.39-.468.878-.839 1.462-1.112.586-.272 1.269-.41 2.049-.41 1.156 0 2.103.278 2.836.83.735.552 1.187 1.42 1.357 2.603l-1.814.273c-.078-.688-.325-1.236-.741-1.638-.416-.402-.975-.605-1.677-.605-.52 0-.959.112-1.316.332-.358.22-.644.513-.859.877a3.925 3.925 0 0 0-.458 1.21c-.09.441-.137.89-.137 1.345 0 .468.046.927.137 1.374.091.449.243.85.458 1.2.215.35.504.636.867.858.366.221.82.331 1.366.331.78 0 1.385-.23 1.814-.691.43-.462.683-1.057.76-1.785l1.793.175zm6.242 4.039c-.157.443-.313.853-.468 1.229a3.63 3.63 0 0 1-.595.985c-.242.28-.543.498-.908.653-.364.156-.824.234-1.383.234-.443 0-.892-.052-1.346-.155v-1.658c.22.04.432.084.633.136.201.052.413.079.634.079.286 0 .523-.046.712-.137.188-.091.348-.215.477-.371.13-.155.242-.334.333-.535a9 9 0 0 0 .253-.634l.097-.255-4.017-10.1h1.99l2.847 7.878 2.553-7.878h1.93l-3.742 10.53zm15.483-12.521v12.09h-1.853v-12.09h-4.134v-1.677h10.081v1.677h-4.094zm12.713 7.051c0 .793-.104 1.511-.312 2.155a4.42 4.42 0 0 1-.936 1.647 4.175 4.175 0 0 1-1.53 1.054c-.606.246-1.31.37-2.116.37-.82 0-1.525-.13-2.116-.39a4.055 4.055 0 0 1-1.472-1.072c-.39-.455-.676-1-.858-1.638a7.574 7.574 0 0 1-.273-2.086c0-.78.1-1.495.303-2.146a4.62 4.62 0 0 1 .906-1.677c.402-.468.91-.832 1.52-1.091.611-.261 1.32-.39 2.126-.39.806 0 1.505.133 2.096.399a4.148 4.148 0 0 1 1.483 1.103 4.61 4.61 0 0 1 .887 1.666c.195.644.292 1.343.292 2.096zm-1.834 0c0-.493-.05-.967-.155-1.424a3.518 3.518 0 0 0-.517-1.209 2.64 2.64 0 0 0-.936-.837c-.383-.209-.848-.313-1.394-.313-.559 0-1.03.107-1.414.322-.383.214-.689.5-.915.858a3.659 3.659 0 0 0-.488 1.229 6.886 6.886 0 0 0-.147 1.434c0 .506.052.983.156 1.432.104.449.273.845.507 1.19a2.5 2.5 0 0 0 .936.82c.39.2.865.3 1.424.3.559 0 1.027-.107 1.404-.322.377-.213.68-.496.906-.848.228-.35.39-.757.487-1.218a6.77 6.77 0 0 0 .146-1.414zm12.149-5.068v9.224c0 .793-.075 1.468-.224 2.027-.149.559-.393 1.018-.732 1.376-.336.356-.782.617-1.335.78-.552.162-1.231.242-2.038.242-.57 0-1.094-.058-1.57-.174a3.43 3.43 0 0 1-1.237-.566 2.69 2.69 0 0 1-.828-1.014c-.203-.416-.322-.93-.361-1.54h1.812c0 .35.063.643.185.877.124.234.294.423.509.566.213.143.46.243.74.301.28.06.568.088.868.088.611 0 1.088-.088 1.432-.262.345-.176.6-.42.762-.732.163-.312.26-.675.292-1.093.033-.416.048-.857.048-1.325v-.352c-.312.468-.75.814-1.316 1.035-.565.22-1.121.33-1.667.33-.702 0-1.313-.129-1.833-.388a3.74 3.74 0 0 1-1.297-1.054 4.382 4.382 0 0 1-.76-1.54 6.9 6.9 0 0 1-.243-1.853c0-.702.09-1.365.273-1.99a4.636 4.636 0 0 1 .818-1.617 3.882 3.882 0 0 1 1.374-1.082c.553-.267 1.194-.401 1.922-.401a4.11 4.11 0 0 1 1.6.302c.48.202.883.556 1.208 1.063v-1.228h1.598zm-1.656 4.895c0-.508-.046-.972-.137-1.395a3.292 3.292 0 0 0-.438-1.102 2.11 2.11 0 0 0-.8-.73c-.332-.176-.731-.264-1.2-.264-.506 0-.933.101-1.277.303a2.493 2.493 0 0 0-.84.79 3.424 3.424 0 0 0-.467 1.11 5.75 5.75 0 0 0-.009 2.536c.09.402.24.76.449 1.071.207.313.48.564.818.752.338.187.754.283 1.248.283s.91-.096 1.249-.283a2.32 2.32 0 0 0 .818-.752c.209-.311.358-.669.449-1.071.09-.404.137-.82.137-1.248zm5.518.784c0 .416.061.812.185 1.19.124.377.309.71.556 1.004.247.292.549.526.906.702.358.175.77.263 1.239.263.702 0 1.27-.169 1.707-.507.435-.339.717-.838.848-1.501l1.832.135c-.091.573-.27 1.066-.535 1.484-.267.415-.595.76-.986 1.033a4.28 4.28 0 0 1-1.346.614 6.25 6.25 0 0 1-1.638.204c-.857 0-1.581-.152-2.173-.458a4.05 4.05 0 0 1-1.434-1.2 4.744 4.744 0 0 1-.78-1.666 7.628 7.628 0 0 1-.234-1.883c0-.727.102-1.41.303-2.046a4.85 4.85 0 0 1 .906-1.677 4.364 4.364 0 0 1 1.482-1.142c.586-.279 1.26-.419 2.029-.419.78 0 1.448.134 2.007.4a3.895 3.895 0 0 1 1.396 1.103c.37.468.642 1.013.818 1.636.176.625.264 1.302.264 2.029v.273l-.02.273h-7.332v.156zm5.48-1.6a3.582 3.582 0 0 0-.196-1.062 2.678 2.678 0 0 0-.498-.868 2.295 2.295 0 0 0-.788-.584 2.555 2.555 0 0 0-1.073-.215c-.884 0-1.556.25-2.019.75-.462.5-.763 1.161-.906 1.98h5.48zm8.189-4.079v1.482h-1.813v5.616c0 .207.006.406.02.595.012.188.058.358.135.507a.83.83 0 0 0 .352.35c.155.085.37.128.643.128l.41-.01c.143-.006.28-.03.41-.069v1.443a12.17 12.17 0 0 1-.615.098 5.074 5.074 0 0 1-.633.04c-.884 0-1.522-.193-1.911-.576-.39-.383-.586-1.005-.586-1.862v-6.26h-1.677v-1.482h1.677v-3.023h1.775v3.023h1.813zm8.502 10.106v-5.947c0-.35-.016-.689-.049-1.014a2.421 2.421 0 0 0-.243-.868 1.454 1.454 0 0 0-.586-.603c-.259-.15-.61-.225-1.052-.225-.897 0-1.583.267-2.057.799-.475.533-.712 1.203-.712 2.009v5.85h-1.794v-13.768h1.794v4.817c.429-.495.913-.835 1.453-1.025a5.272 5.272 0 0 1 1.745-.283c.376 0 .75.05 1.121.148.37.097.705.262 1.004.496.3.22.527.465.682.732.157.265.27.549.342.848.071.298.114.607.126.926.014.319.02.647.02.985v6.122h-1.794zm5.656-4.427c0 .416.061.812.185 1.19.123.377.308.71.556 1.004.246.292.548.526.906.702.358.175.77.263 1.239.263.702 0 1.27-.169 1.705-.507.437-.339.718-.838.848-1.501l1.834.135c-.091.573-.27 1.066-.537 1.484-.265.415-.595.76-.984 1.033a4.28 4.28 0 0 1-1.346.614 6.25 6.25 0 0 1-1.638.204c-.857 0-1.583-.152-2.173-.458a4.05 4.05 0 0 1-1.434-1.2 4.718 4.718 0 0 1-.78-1.666 7.628 7.628 0 0 1-.234-1.883c0-.727.1-1.41.303-2.046a4.85 4.85 0 0 1 .906-1.677 4.364 4.364 0 0 1 1.482-1.142c.585-.279 1.26-.419 2.028-.419.78 0 1.45.134 2.008.4a3.877 3.877 0 0 1 1.394 1.103c.371.468.644 1.013.82 1.636.176.625.264 1.302.264 2.029v.273l-.021.273h-7.331v.156zm5.48-1.6a3.582 3.582 0 0 0-.196-1.062 2.678 2.678 0 0 0-.498-.868 2.287 2.287 0 0 0-.79-.584 2.543 2.543 0 0 0-1.072-.215c-.884 0-1.556.25-2.018.75-.462.5-.763 1.161-.906 1.98h5.48zm5.576-4.079v1.716c.26-.585.627-1.03 1.101-1.336.476-.306 1.03-.458 1.668-.458a3.777 3.777 0 0 1 .78.078v1.716a6.182 6.182 0 0 0-.292-.029 3.858 3.858 0 0 0-.292-.01c-.3 0-.603.049-.908.146a2.872 2.872 0 0 0-.829.419c-.273.208-.484.44-.634.693a3.249 3.249 0 0 0-.34.81 4.462 4.462 0 0 0-.147.886c-.02.306-.03.614-.03.926v4.543h-1.754v-10.1h1.677z" fill="#fff"/></svg>