<svg viewBox="0 0 2000 314" xmlns="http://www.w3.org/2000/svg" fill-rule="evenodd" clip-rule="evenodd"><path d="M2250.027 23.792h-2500.077v-23.792h2500.078v23.792zm0 48.203h-2500.077v-23.792h2500.078v23.792zm0 48.204h-2500.077v-23.792h2500.078v23.793zm0 48.204h-2500.077v-23.792h2500.078v23.792zm0 48.204h-2500.077v-23.792h2500.078v23.792zm0 48.204h-2500.077v-23.792h2500.078v23.792zm0 48.204h-2500.077v-23.792h2500.078v23.792z" fill="#ff133f"/><path d="M2250.027 47.894h-2500.077v-23.792h2500.078v23.792zm0 48.203h-2500.077v-23.792h2500.078v23.792zm0 48.204h-2500.077v-23.792h2500.078v23.792zm0 48.204h-2500.077v-23.792h2500.078v23.792zm0 48.204h-2500.077v-23.792h2500.078v23.792zm0 48.204h-2500.077v-23.792h2500.078v23.792z" fill="#fff"/></svg>