<svg viewBox="0 0 1312 1312" xmlns="http://www.w3.org/2000/svg" fill-rule="evenodd" clip-rule="evenodd"><g fill="none"><path d="M764.955 1302.81v-519.765m-36.153 519.765v-519.765m-36.153 519.765v-519.765m-36.153 519.765v-519.765m-36.153 519.765v-519.765m-36.153 519.765v-519.765m-36.153 519.765v-519.765" stroke="#ff133f"/><path d="M746.878 1302.81v-519.765m-36.153 519.765v-519.765m-36.152 519.765v-519.765m-36.153 519.765v-519.765m-36.153 519.765v-519.765m-36.153 519.765v-519.765" stroke="#fff"/></g><g fill="#0007ff"><path d="M770.954 792.009h4.82v13.142h-4.82zM766.736 782.992h13.256v13.142h-13.256zm-13.859 9.017h4.82v13.142h-4.82zM748.66 782.992h13.256v13.142h-13.256zm-31.935 9.017h4.82v13.142h-4.82zM712.507 782.992h13.256v13.142h-13.256zm-31.935 9.017h4.82v13.142h-4.82zM676.354 782.992h13.256v13.142h-13.256zm-31.935 9.017h4.82v13.142h-4.82zM640.201 782.992h13.256v13.142h-13.256zm-31.935 9.017h4.82v13.142h-4.82zM604.048 782.992h13.256v13.142h-13.256zm-31.935 9.017h4.82v13.142h-4.82zM567.895 782.992h13.256v13.142h-13.256zm-31.935 9.017h4.82v13.142h-4.82zM531.742 782.992h13.256v13.142h-13.256zm203.059 9.017h4.82v13.142h-4.82zM730.583 782.992h13.256v13.142h-13.256zm-31.935 9.017h4.82v13.142h-4.82zM694.43 782.992h13.256v13.142h-13.256zm-31.935 9.017h4.82v13.142h-4.82zM658.277 782.992h13.256v13.142h-13.256zm-31.935 9.017h4.82v13.142h-4.82zM622.124 782.992h13.256v13.142h-13.256zm-31.935 9.017h4.82v13.142h-4.82zM585.971 782.992h13.256v13.142h-13.256zm-31.935 9.017h4.82v13.142h-4.82zM549.819 782.992h13.256v13.142h-13.256z"/></g><path fill="#0007ff" d="M531.742 531.742h248.25v248.25h-248.25z"/><path d="M721.675 753.198h-6.285v-5.296h9.405c.186-.244.345-.511.477-.8h-18.161v6.096h-3.779v-6.978h22.237c.059-.257.099-.523.12-.8h-26.401v-.882h26.401a5.193 5.193 0 0 0-.124-.8h-22.233v-6.993h10.389v3.628h-6.61v2.483h18.15a4.164 4.164 0 0 0-.476-.8h-9.395v-5.311h6.285a7.37 7.37 0 0 1 3.132.676 8.536 8.536 0 0 1 2.589 1.832l.003.004.006.006.012.013.01.01.006.006.004.004.006.007.018.02.005.005.001.001.031.032.002.002.005.007.015.016.008.008.005.005.005.006.008.008.014.016.006.006.002.003.03.033.001.001.004.004.018.021.006.007.004.004.006.007.009.011.011.012.006.007.004.004.004.005.023.026.002.002.028.033.003.004.006.007.012.013.008.011.006.006.004.005.006.007.016.019.005.006.001.002a.46.46 0 0 1 .028.034l.002.002.006.007.014.017.007.008.004.006.005.006.008.009.012.015.006.008.002.003.027.034.001.001.004.005.018.022.005.006.003.005.006.007.009.012.01.012.005.007.004.005.004.006.019.023.004.006.026.034.003.004.006.008.011.014.007.01.005.007.005.006.005.007.013.018.006.008.002.003.025.034.002.002.006.009.013.017.005.008.005.006.005.007.007.01.01.014.006.009.003.004.003.004.022.032.006.007.015.022.003.005.004.006.006.009.008.011.008.011.006.009.004.006.004.005.013.02.006.009.002.002.023.035.003.004.007.011.009.013.005.008.006.009.005.008.004.007.01.014.008.012.002.004.022.034.002.003.008.013.01.015.003.006.005.008.007.01.005.008.007.011.008.012.003.006.002.003.011.018.009.015.01.016.01.015.002.003.004.008.008.013.006.009.004.008.008.012.005.009.002.003.007.012.011.018.015.027.01.016.01.017.005.008.003.005.007.012.006.012.003.004.005.009.047.084.004.007.001.002.006.011.009.016.002.004.003.005.01.019.006.01.052.098.013.023.007.013h5.383v-.806h-4.331v-3.622h12.722v2.746h6.178l.886-2.746 1.987 6.162 6.475-.015-5.246 3.795 2.014 6.153-5.23-3.817-5.229 3.817.776-2.373h-6.867v2.731h-4.135v-3.613h11.291l.262-.801h-16.94l-.069.131-.002.002-.001.002-.009.017-.007.013-.001.001v.001l-.052.092-.002.005-.002.003-.008.015-.008.012-.001.002-.003.006a3.65 3.65 0 0 1-.049.084l-.004.007-.002.004-.008.012-.007.012-.002.004-.005.008-.047.078-.006.01-.003.004-.006.011-.007.011-.003.005-.007.01-.009.015-.004.006v.001l-.011.017-.011.018-.01.015-.008.013-.003.004-.006.009-.007.011-.004.007-.007.01-.008.013-.004.006-.001.002-.015.023-.007.01-.009.014-.01.015-.003.005-.005.007-.007.01-.006.009-.007.011-.008.011-.003.005-.003.004-.016.023-.005.008-.007.011-.014.019-.003.004-.004.007-.007.009-.007.01-.007.011-.007.01-.004.005-.003.005-.016.022-.005.008-.005.006-.017.024-.003.004-.004.005-.006.009-.009.012-.007.011-.007.008-.004.005-.004.006-.015.021-.005.007-.001.002-.026.034-.003.004-.006.008-.01.013-.008.01-.005.008-.004.005-.005.007-.016.02-.005.007-.001.001-.026.034-.003.003-.006.008-.011.015-.008.009-.005.007-.004.005-.006.008-.015.019-.005.006-.002.002-.027.034-.002.002-.006.007-.012.017-.008.008-.005.006-.004.006-.007.008-.014.018-.006.006-.001.002-.028.034-.002.002-.005.006-.015.018-.007.008-.004.005-.005.006-.008.009-.014.016-.005.007-.002.002-.029.033-.001.002-.005.005-.017.02-.006.007-.004.005-.006.006-.008.009-.013.015-.006.007-.002.002-.03.033-.001.001-.003.004-.02.022-.006.006-.004.005-.005.005-.01.011-.012.014-.006.006-.003.003-.03.032v.001l-.003.002-.022.024-.005.006-.004.004-.005.006-.011.011-.012.012-.006.007-.003.003-.031.032a8.424 8.424 0 0 1-2.557 1.811l-.046.021-.017.008-.029.013-.023.01-.023.01-.029.013-.017.007-.037.016-.009.004a7.461 7.461 0 0 1-2.924.575zm-1.062-3.191c2.475 0 3.244-1.223 3.244-1.223h-4.651v1.223h1.407zm8.82-2.905a8.04 8.04 0 0 1-.263.8h16.83l.262-.8h-16.829zm15.214-1.682h-14.943a7.883 7.883 0 0 1-.083.8h16.132l-1.106-.8zm-15.023-1.682c.04.264.067.53.081.8h13.722l-1.107-.8h-12.696zm-.449-1.682c.102.263.19.53.263.8h18.204l.258-.8h-18.725zm19.268-1.683h-10.15v.8h9.892l.258-.8zm-27.83-.438h-1.407v1.238h4.653s-1.489-1.238-3.246-1.238zm-165.939-26.267h200.527v.75h-200.527zM567.73 560.841v31.103h-3.312v-31.103h-9.745v-2.783h22.895v2.783h-9.839zm5.134 15.839h12.144v2.64h-12.144zm46.033 5.282c-.736 3.422-2.273 6.04-4.607 7.847-2.337 1.81-5.25 2.713-8.736 2.713-2.528 0-4.713-.481-6.552-1.44-1.841-.962-3.346-2.25-4.513-3.865-1.167-1.616-2.032-3.472-2.592-5.566-.56-2.097-.839-4.296-.839-6.601 0-3.616.504-6.56 1.51-8.833 1.01-2.27 2.258-4.065 3.745-5.376 1.487-1.31 3.088-2.208 4.8-2.686 1.713-.481 3.274-.722 4.681-.722 1.63 0 3.167.24 4.607.722a11.719 11.719 0 0 1 3.816 2.088 11.385 11.385 0 0 1 2.736 3.31c.721 1.297 1.208 2.76 1.463 4.394l-3.407.575c-.352-2.464-1.376-4.432-3.07-5.904-1.699-1.472-3.793-2.208-6.288-2.208-2.018 0-3.73.422-5.138 1.273a10.362 10.362 0 0 0-3.431 3.334c-.88 1.375-1.52 2.93-1.921 4.657a23.187 23.187 0 0 0-.599 5.232c0 1.76.2 3.519.599 5.278.401 1.76 1.04 3.338 1.92 4.73.88 1.39 2.024 2.52 3.432 3.382 1.407.865 3.138 1.296 5.185 1.296 1.278 0 2.48-.182 3.6-.551a9.188 9.188 0 0 0 2.974-1.607 8.748 8.748 0 0 0 2.138-2.57c.56-1.008.936-2.152 1.126-3.43l3.361.528zm21.552 9.982v-14.927a25.42 25.42 0 0 0-.167-3.023c-.112-.93-.37-1.736-.769-2.425-.399-.687-.985-1.223-1.75-1.608-.769-.384-1.825-.574-3.17-.574-1.44 0-2.608.264-3.505.791-.894.528-1.598 1.2-2.112 2.015a7.926 7.926 0 0 0-1.055 2.76 16.269 16.269 0 0 0-.288 2.976v14.015h-3.073v-33.886h3.073v12.19c.992-1.278 2.144-2.207 3.455-2.782 1.314-.578 2.768-.865 4.37-.865 1.662 0 3.023.24 4.079.721 1.056.478 1.88 1.12 2.472 1.918.592.8 1 1.713 1.223 2.736.226 1.027.337 2.082.337 3.17v16.798h-3.12zm13.681-24.815v24.815h-3.168v-24.814h3.167zm-3.168-9.071h3.167v4.32h-3.167v-4.32zm13.534 9.071v3.504c.898-1.31 2.027-2.287 3.384-2.927 1.361-.642 2.824-.962 4.393-.962 1.921 0 3.552.352 4.895 1.056 1.346.704 2.434 1.648 3.264 2.833.833 1.185 1.44 2.551 1.824 4.106a20.2 20.2 0 0 1 .578 4.87c0 1.631-.194 3.224-.578 4.775-.384 1.554-1 2.92-1.848 4.106a9.605 9.605 0 0 1-3.24 2.856c-1.311.718-2.895 1.08-4.75 1.08-1.57 0-3.071-.32-4.514-.96-1.44-.642-2.575-1.666-3.408-3.073v12.097h-3.023v-33.361h3.023zm15.264 12.097c0-1.185-.126-2.37-.384-3.552-.255-1.185-.686-2.25-1.296-3.193a7.384 7.384 0 0 0-2.326-2.303c-.944-.592-2.12-.888-3.528-.888-1.44 0-2.656.273-3.648.815a6.733 6.733 0 0 0-2.401 2.185c-.608.912-1.047 1.977-1.32 3.19a17.514 17.514 0 0 0-.408 3.842c0 1.534.135 2.945.408 4.223.273 1.282.721 2.384 1.343 3.311a6.445 6.445 0 0 0 2.425 2.161c.991.514 2.19.769 3.601.769 1.408 0 2.59-.314 3.552-.936a7.275 7.275 0 0 0 2.328-2.448c.59-1.01 1.015-2.144 1.27-3.408.258-1.264.384-2.52.384-3.768zm-114.095 42.719l-4.223-12.358h4.63l1.898 7.557 1.824-7.557h4.657l-4.393 12.358h-4.393zm14.785 0v-10.68h-3.888v-3.191c.449 0 .915-.024 1.405-.074a4.567 4.567 0 0 0 1.366-.346c.426-.185.783-.46 1.08-.83.296-.366.478-.862.54-1.487h3.697v16.608h-4.2zm8.83-4.247h4.367v4.25h-4.366zm6.121-3.912c0-.671.041-1.352.12-2.04.08-.69.22-1.353.42-1.992.2-.64.48-1.244.841-1.812a6.145 6.145 0 0 1 1.379-1.525c.61-.478 1.24-.83 1.897-1.056a6.583 6.583 0 0 1 2.135-.334c1.073 0 2.009.22 2.81.66a5.816 5.816 0 0 1 1.99 1.797c.529.763.924 1.645 1.188 2.654.264 1.006.396 2.088.396 3.24 0 1.103-.12 2.188-.36 3.25-.24 1.064-.625 2.015-1.153 2.845a6.202 6.202 0 0 1-2.073 2.017c-.857.51-1.91.769-3.159.769a6.24 6.24 0 0 1-2.313-.435 5.525 5.525 0 0 1-1.957-1.32 6.741 6.741 0 0 1-1.093-1.474 8.037 8.037 0 0 1-.66-1.645 10.173 10.173 0 0 1-.323-1.775 20.03 20.03 0 0 1-.085-1.824zm4.153-.29c0 .434.02.944.058 1.537.041.592.141 1.16.302 1.703.159.546.402 1.01.73 1.393.33.385.79.575 1.382.575.575 0 1.023-.179 1.343-.54.32-.36.557-.803.71-1.33.15-.529.237-1.089.264-1.681a28.603 28.603 0 0 0-.015-3.144 6.359 6.359 0 0 0-.287-1.619 3.34 3.34 0 0 0-.695-1.26c-.305-.338-.737-.505-1.297-.505-.56 0-1.008.176-1.343.528-.337.352-.59.786-.756 1.296a7.233 7.233 0 0 0-.326 1.595c-.047.555-.07 1.038-.07 1.452zm-43.444 126.536v2.663h-1.43v-6.352h4.67v1.178h-3.24v1.367h2.845v1.144h-2.845zm6.02-3.689c.38 0 .749.029 1.112.087.364.062.704.209 1.024.443.208.156.387.335.533.534.147.202.267.416.355.648.091.232.159.472.2.722.04.249.061.498.061.75 0 .3-.032.599-.096.895-.068.299-.17.577-.308.838a2.933 2.933 0 0 1-.525.707 2.34 2.34 0 0 1-.763.493 2.729 2.729 0 0 1-.81.2 9.852 9.852 0 0 1-.835.035h-2.044v-6.352h2.097zm-.674 5.173h.423c.246 0 .492-.012.733-.041a1.39 1.39 0 0 0 .648-.232c.19-.13.343-.331.46-.61.118-.276.176-.666.176-1.17a4.2 4.2 0 0 0-.032-.481 2.581 2.581 0 0 0-.111-.496 1.734 1.734 0 0 0-.226-.44 1.052 1.052 0 0 0-.37-.32 1.488 1.488 0 0 0-.64-.175c-.24-.015-.462-.02-.674-.02h-.387v3.985zm7.291 1.179h-1.423v-5.174h-1.9v-1.178h5.22v1.178h-1.897v5.174zm4.868-6.352h1.431v6.354h-1.431zm5.141 6.352v-2.745c0-.115-.015-.223-.038-.329a.845.845 0 0 0-.118-.284.635.635 0 0 0-.21-.203.648.648 0 0 0-.33-.076.733.733 0 0 0-.39.097.692.692 0 0 0-.249.246c-.058.103-.1.214-.126.337a1.978 1.978 0 0 0-.035.373v2.584h-1.331v-4.663h1.296v.542a1.69 1.69 0 0 1 .563-.484c.211-.108.455-.164.724-.164.173 0 .346.024.516.07.17.05.326.127.464.235.264.205.434.443.51.716.073.272.112.569.112.885v2.863h-1.358zm5.173 0v-.45a1.11 1.11 0 0 1-.54.44 1.916 1.916 0 0 1-.692.127 1.76 1.76 0 0 1-.868-.205 1.906 1.906 0 0 1-.622-.552 2.5 2.5 0 0 1-.375-.774 3.156 3.156 0 0 1-.123-.871c0-.32.038-.628.12-.927.082-.302.205-.566.372-.797.17-.232.382-.417.64-.558.258-.14.566-.21.918-.21.21 0 .407.035.595.105.185.073.36.179.522.317v-1.997h1.34v6.352h-1.287zm-.009-2.303a3.45 3.45 0 0 0-.035-.483 1.54 1.54 0 0 0-.135-.45.856.856 0 0 0-.285-.328.815.815 0 0 0-.472-.126.75.75 0 0 0-.448.126.96.96 0 0 0-.29.323 1.49 1.49 0 0 0-.153.437c-.03.158-.044.31-.044.455 0 .16.012.325.04.486.027.162.077.308.148.437.073.13.17.235.293.32a.837.837 0 0 0 .472.126.771.771 0 0 0 .454-.123.861.861 0 0 0 .28-.311c.07-.126.116-.267.14-.425.023-.162.035-.314.035-.464zm4.985 2.303v-.514a.952.952 0 0 1-.252.279c-.1.08-.21.144-.328.193a1.884 1.884 0 0 1-.742.158c-.367 0-.651-.064-.86-.196a1.292 1.292 0 0 1-.463-.504 1.964 1.964 0 0 1-.193-.666 6.386 6.386 0 0 1-.041-.695v-2.718h1.322v2.674c0 .126.009.25.03.373.017.123.05.231.102.325a.58.58 0 0 0 .22.226.753.753 0 0 0 .378.085.78.78 0 0 0 .411-.1.681.681 0 0 0 .24-.267c.06-.108.097-.24.118-.395.023-.153.032-.317.032-.49v-2.431h1.287v4.663h-1.26zm3.106-1.637c.041.305.144.51.302.616.158.106.387.158.69.158l.222-.014a.585.585 0 0 0 .217-.065.403.403 0 0 0 .161-.135.344.344 0 0 0 .065-.22c0-.138-.07-.24-.208-.31a2.235 2.235 0 0 0-.513-.17 52.692 52.692 0 0 0-.666-.144c-.24-.05-.46-.13-.666-.235a1.51 1.51 0 0 1-.513-.428c-.138-.179-.205-.425-.205-.736 0-.276.055-.508.17-.695.114-.185.26-.337.446-.455.181-.114.39-.2.624-.249a3.191 3.191 0 0 1 1.449.009c.24.055.454.146.64.273.184.126.34.29.46.49.117.202.184.445.196.735l-1.24.062a.628.628 0 0 0-.088-.314.643.643 0 0 0-.188-.208.78.78 0 0 0-.255-.117 1.228 1.228 0 0 0-.496-.02.743.743 0 0 0-.211.052.434.434 0 0 0-.164.117.31.31 0 0 0-.068.211c0 .12.07.211.211.27.144.059.317.112.528.158l.684.147c.246.056.475.135.683.244.211.108.387.255.528.442.14.185.211.431.211.736 0 .302-.062.552-.185.751a1.398 1.398 0 0 1-.487.484c-.199.12-.425.205-.677.255a3.68 3.68 0 0 1-.757.076c-.246 0-.498-.029-.756-.088a2.279 2.279 0 0 1-.698-.29 1.61 1.61 0 0 1-.508-.516 1.454 1.454 0 0 1-.199-.78v-.053l1.261-.044zm5.229-2.018v2.097c0 .194.03.332.09.414.06.085.197.126.414.126l.18-.003.181-.015v1.027l-.548.055a8.624 8.624 0 0 1-.361.01c-.27 0-.49-.033-.657-.098a.821.821 0 0 1-.393-.281 1.103 1.103 0 0 1-.185-.46 3.892 3.892 0 0 1-.044-.622v-2.25h-.665v-1.008h.665v-1.376h1.323v1.376h.818v1.009h-.818zm2.745-.243c.126-.322.287-.545.48-.669.197-.123.438-.184.725-.184h.097a.76.76 0 0 1 .138.017v1.206a1.51 1.51 0 0 0-.162-.02l-.152-.007c-.24 0-.431.038-.572.118a.816.816 0 0 0-.32.302 1.122 1.122 0 0 0-.14.407 3.3 3.3 0 0 0-.03.434v2.294h-1.36v-4.663h1.296v.765zm3.141 3.898h-1.314v-4.663h1.314v4.663zm0-5.156h-1.314v-1.196h1.314v1.196zm1.979 3.211c.044.29.147.528.308.716.161.19.396.284.7.284.212 0 .385-.038.52-.117.135-.08.252-.202.355-.378l1.331.09c-.167.5-.454.872-.859 1.115-.405.246-.865.37-1.381.37-.367 0-.695-.062-.991-.185a2.09 2.09 0 0 1-.742-.514 2.293 2.293 0 0 1-.464-.777 2.9 2.9 0 0 1-.161-.99c0-.347.056-.672.167-.972a2.223 2.223 0 0 1 1.217-1.305c.29-.126.613-.19.974-.19.39 0 .727.07 1.017.208.288.138.525.328.716.566.188.24.328.52.422.839.094.316.138.657.138 1.017v.223h-3.267zm1.874-1.006a.9.9 0 0 0-.27-.577.83.83 0 0 0-.595-.226c-.287 0-.507.067-.66.2-.155.131-.267.334-.34.603h1.865zm2.951 1.314c.043.305.143.51.301.616.159.106.39.158.69.158l.225-.014a.587.587 0 0 0 .214-.065.362.362 0 0 0 .226-.355c0-.138-.067-.24-.208-.31a2.256 2.256 0 0 0-.51-.17l-.669-.144a2.636 2.636 0 0 1-.666-.235 1.51 1.51 0 0 1-.513-.428c-.138-.179-.205-.425-.205-.736 0-.276.056-.508.17-.695.114-.185.264-.337.446-.455.182-.114.393-.2.624-.249a3.197 3.197 0 0 1 1.45.009c.24.055.454.146.638.273.188.126.34.29.46.49.121.202.186.445.197.735l-1.24.062a.66.66 0 0 0-.085-.314.687.687 0 0 0-.19-.208.728.728 0 0 0-.256-.117 1.223 1.223 0 0 0-.496-.02.743.743 0 0 0-.21.052.403.403 0 0 0-.162.117c-.047.05-.068.12-.068.211 0 .12.07.211.212.27.14.059.316.112.525.158l.686.147a2.9 2.9 0 0 1 .683.244c.208.108.384.255.525.442.14.185.211.431.211.736 0 .302-.061.552-.185.751a1.39 1.39 0 0 1-.483.484c-.203.12-.429.205-.68.255a3.68 3.68 0 0 1-.757.076c-.247 0-.499-.029-.757-.088a2.232 2.232 0 0 1-.695-.29 1.59 1.59 0 0 1-.51-.516c-.132-.214-.197-.472-.197-.78v-.053l1.258-.044zm-54.18 12.138h-.854v-6.355h4.068v.783h-3.215v1.936h2.936v.748h-2.936v2.888zm7.876-2.322c0 .366-.05.698-.143.994a2.02 2.02 0 0 1-.434.76c-.19.21-.428.372-.707.486a2.56 2.56 0 0 1-.977.17c-.378 0-.703-.059-.976-.179a1.847 1.847 0 0 1-.678-.495 1.905 1.905 0 0 1-.395-.757 3.44 3.44 0 0 1-.127-.962c0-.36.047-.689.138-.991.094-.3.235-.557.42-.774a1.89 1.89 0 0 1 .7-.502c.282-.12.61-.182.983-.182.372 0 .695.062.968.185.272.123.501.293.683.51.182.215.32.473.41.769.089.296.135.619.135.968zm-.847 0c0-.23-.024-.45-.07-.657a1.622 1.622 0 0 0-.241-.558 1.19 1.19 0 0 0-.431-.387 1.324 1.324 0 0 0-.642-.146c-.258 0-.478.05-.654.15a1.19 1.19 0 0 0-.423.395 1.672 1.672 0 0 0-.225.566 3.278 3.278 0 0 0-.068.663c0 .235.024.454.074.663.046.205.126.39.231.548.109.158.252.285.434.378.18.091.399.138.657.138s.472-.05.648-.146c.173-.1.314-.232.417-.393a1.61 1.61 0 0 0 .225-.563c.044-.212.068-.429.068-.651zm2.557-2.341v.792c.12-.27.288-.475.507-.616.22-.14.476-.21.772-.21a1.872 1.872 0 0 1 .358.034v.792l-.135-.015-.135-.002a1.389 1.389 0 0 0-.8.26 1.15 1.15 0 0 0-.294.32 1.54 1.54 0 0 0-.156.373c-.038.132-.058.27-.067.41a6.669 6.669 0 0 0-.015.428v2.097h-.81v-4.663h.775zm4.302 0v.684h-.838v2.592l.008.276a.59.59 0 0 0 .065.231c.035.07.09.124.161.165a.64.64 0 0 0 .296.058l.19-.006a.785.785 0 0 0 .189-.032v.666l-.282.047-.293.017c-.408 0-.704-.088-.883-.267-.179-.175-.27-.463-.27-.859v-2.888h-.774v-.684h.774v-1.396h.819v1.396h.838zm1.745-.765h-.818v-.927h.818v.927zm0 5.428h-.818v-4.663h.818v4.663zm2.258-3.979v3.98h-.818v-3.98h-.757v-.684h.757v-.352c0-.466.106-.809.32-1.029.214-.22.563-.328 1.05-.328l.202.008.202.018v.7a1.567 1.567 0 0 0-.182-.008h-.178c-.23 0-.385.041-.47.117-.082.08-.126.232-.126.46v.414h.956v.684h-.956zm3.675 4.176l-.217.566a1.664 1.664 0 0 1-.276.454c-.111.13-.25.232-.416.302-.17.074-.382.109-.64.109-.205 0-.41-.024-.621-.07v-.766l.293.062.29.035c.132 0 .244-.02.329-.062a.674.674 0 0 0 .223-.17 1.23 1.23 0 0 0 .152-.25l.117-.29.044-.117-1.853-4.663h.918l1.314 3.637 1.179-3.637h.891l-1.727 4.86zm7.074-6.552l.524.015a2.7 2.7 0 0 1 .528.076c.372.082.683.22.936.414.252.19.457.422.615.692.159.27.273.569.343.894.068.329.103.666.103 1.015 0 .31-.026.619-.076.92-.05.306-.14.59-.267.857-.126.267-.29.507-.499.718a2.214 2.214 0 0 1-.777.51c-.27.115-.569.183-.891.206-.326.026-.63.038-.918.038h-1.719v-6.355h2.097zm-1.253 5.599h.883c.202 0 .43-.01.683-.024.252-.015.475-.059.666-.129.246-.097.448-.232.604-.402a2.05 2.05 0 0 0 .37-.574c.087-.215.149-.44.184-.68a5.34 5.34 0 0 0 .047-.71c0-.786-.182-1.373-.551-1.757-.37-.384-.892-.575-1.563-.575h-1.323v4.85zm5.994-1.288c0 .19.03.376.085.549a1.4 1.4 0 0 0 .258.463c.115.135.253.243.417.325.167.08.358.12.572.12.325 0 .586-.076.789-.234.199-.155.33-.387.39-.692l.847.064c-.044.264-.126.49-.25.684a1.66 1.66 0 0 1-.454.475 1.93 1.93 0 0 1-.619.284 2.845 2.845 0 0 1-.756.094c-.396 0-.73-.07-1.003-.211a1.865 1.865 0 0 1-.663-.554 2.206 2.206 0 0 1-.36-.769 3.61 3.61 0 0 1-.11-.868c0-.337.048-.65.142-.944a2.18 2.18 0 0 1 .42-.774c.184-.223.413-.399.682-.528.27-.13.581-.194.936-.194.36 0 .668.062.927.185.258.123.472.293.645.51.17.215.296.467.378.754.08.29.12.601.12.939v.123a.88.88 0 0 1-.009.126h-3.384v.073zm2.528-.739a1.666 1.666 0 0 0-.088-.49 1.22 1.22 0 0 0-.232-.398 1.06 1.06 0 0 0-.363-.273 1.196 1.196 0 0 0-.496-.097c-.407 0-.718.114-.93.346-.213.232-.351.534-.419.912h2.528zm7.417 2.783v-2.627a9.1 9.1 0 0 0-.012-.484 1.524 1.524 0 0 0-.09-.449.71.71 0 0 0-.247-.328c-.115-.086-.279-.127-.487-.127-.205 0-.378.036-.522.103a.962.962 0 0 0-.352.285c-.09.12-.155.26-.196.422a1.953 1.953 0 0 0-.065.513v2.692h-.827v-3.015c0-.29-.067-.527-.2-.715-.131-.19-.357-.285-.683-.285-.355 0-.63.12-.827.364-.2.243-.299.592-.299 1.05v2.601h-.81v-4.663h.81v.558c.17-.223.373-.385.61-.487.235-.1.493-.153.768-.153.27 0 .514.062.734.185.22.123.39.308.507.554a1.7 1.7 0 0 1 .628-.548c.249-.126.516-.19.803-.19.308 0 .56.04.763.117.199.079.363.193.483.346.124.155.212.337.261.554.053.217.08.466.08.748v2.98h-.83zm6.202-2.322c0 .366-.05.698-.144.994a2.02 2.02 0 0 1-.434.76c-.19.21-.425.372-.706.486a2.56 2.56 0 0 1-.977.17c-.375 0-.7-.059-.976-.179a1.847 1.847 0 0 1-.678-.495 1.905 1.905 0 0 1-.396-.757 3.44 3.44 0 0 1-.126-.962c0-.36.047-.689.138-.991.094-.3.235-.557.42-.774a1.89 1.89 0 0 1 .7-.502c.285-.12.61-.182.983-.182.372 0 .695.062.967.185.273.123.502.293.684.51.181.215.32.473.41.769.088.296.135.619.135.968zm-.847 0c0-.23-.024-.45-.07-.657a1.622 1.622 0 0 0-.241-.558 1.167 1.167 0 0 0-.431-.387 1.316 1.316 0 0 0-.643-.146c-.258 0-.478.05-.654.15a1.19 1.19 0 0 0-.422.395 1.735 1.735 0 0 0-.226.566 3.278 3.278 0 0 0-.067.663c0 .235.023.454.073.663.047.205.126.39.232.548.108.158.252.285.434.378.179.091.399.138.657.138s.472-.05.648-.146c.173-.1.314-.232.42-.393.102-.162.178-.35.222-.563.047-.212.068-.429.068-.651zm5.742.656c-.185 1.17-.865 1.754-2.041 1.754-.367 0-.684-.061-.95-.188a1.851 1.851 0 0 1-.666-.519 2.1 2.1 0 0 1-.393-.774 3.537 3.537 0 0 1-.126-.947c0-.337.044-.651.132-.947a2.08 2.08 0 0 1 .398-.763 1.93 1.93 0 0 1 .675-.513 2.23 2.23 0 0 1 .947-.19c.534 0 .97.128 1.308.384.34.255.548.654.628 1.199l-.84.126c-.034-.317-.149-.569-.34-.754-.193-.187-.45-.281-.773-.281-.24 0-.443.053-.61.155a1.13 1.13 0 0 0-.396.405 1.893 1.893 0 0 0-.211.557 3.266 3.266 0 0 0 0 1.255c.044.209.114.393.21.555.1.16.235.293.402.396.168.102.379.152.631.152.36 0 .64-.106.836-.32.2-.214.316-.486.352-.824l.827.082zm1.604-2.997v.792c.117-.27.287-.475.507-.616.22-.14.475-.21.768-.21a1.887 1.887 0 0 1 .361.034v.792l-.135-.015-.135-.002a1.41 1.41 0 0 0-.419.067c-.14.044-.267.108-.381.194a1.15 1.15 0 0 0-.293.32 1.662 1.662 0 0 0-.226.782 6.83 6.83 0 0 0-.012.428v2.097h-.81v-4.663h.775zm5.759 4.663c-.222 0-.401-.035-.536-.105-.135-.068-.211-.23-.229-.481a2.055 2.055 0 0 1-.672.51 1.997 1.997 0 0 1-.824.164 2.17 2.17 0 0 1-.63-.088 1.486 1.486 0 0 1-.499-.27 1.249 1.249 0 0 1-.328-.451 1.602 1.602 0 0 1-.117-.63c0-.265.046-.476.14-.64.094-.161.22-.29.379-.387a2.08 2.08 0 0 1 .54-.22c.199-.05.407-.097.624-.138l.847-.164.194-.035a.544.544 0 0 0 .164-.059.306.306 0 0 0 .117-.111.378.378 0 0 0 .047-.209.76.76 0 0 0-.088-.39.674.674 0 0 0-.231-.24.968.968 0 0 0-.335-.12 2.359 2.359 0 0 0-.39-.033c-.302 0-.545.068-.73.2-.185.132-.278.36-.278.683h-.84c0-.144.027-.293.074-.449a1.41 1.41 0 0 1 .288-.536 1.46 1.46 0 0 1 .437-.335 2.03 2.03 0 0 1 .54-.17 3.542 3.542 0 0 1 1.059-.018c.154.021.3.06.439.112.138.056.267.13.384.223.117.09.211.211.281.355.068.138.109.29.124.457l.02.487v1.91l.009.251.056.18a.28.28 0 0 0 .137.108.803.803 0 0 0 .267.035v.604h-.44zm-.791-2.413a5.134 5.134 0 0 1-.587.167 42.76 42.76 0 0 1-.592.129l-.361.088c-.12.032-.229.076-.326.135a.731.731 0 0 0-.234.22.632.632 0 0 0-.088.352.662.662 0 0 0 .282.566.993.993 0 0 0 .293.134 1.334 1.334 0 0 0 .695-.006 1.25 1.25 0 0 0 .331-.137c.252-.156.414-.343.481-.563.07-.22.106-.467.106-.742v-.343zm6.003.747c-.188 1.17-.868 1.754-2.044 1.754-.367 0-.684-.061-.95-.188a1.851 1.851 0 0 1-.666-.519 2.096 2.096 0 0 1-.39-.774 3.423 3.423 0 0 1-.126-.947c0-.337.04-.651.129-.947.088-.294.22-.549.401-.763.18-.217.405-.387.675-.513s.584-.19.944-.19c.534 0 .97.128 1.311.384.337.255.546.654.625 1.199l-.839.126c-.035-.317-.15-.569-.34-.754-.194-.187-.452-.281-.774-.281-.24 0-.443.053-.607.155-.168.1-.3.235-.396.405-.1.167-.17.352-.211.557a3.055 3.055 0 0 0 0 1.255c.04.209.111.393.21.555.097.16.232.293.4.396a1.2 1.2 0 0 0 .63.152c.36 0 .64-.106.839-.32.196-.214.314-.486.349-.824l.83.082zm2.879 1.863a9.875 9.875 0 0 1-.217.566 1.664 1.664 0 0 1-.275.454c-.109.13-.25.232-.417.302-.17.074-.38.109-.639.109-.205 0-.41-.024-.622-.07v-.766l.294.062.29.035c.132 0 .243-.02.328-.062a.674.674 0 0 0 .223-.17 1.11 1.11 0 0 0 .153-.25l.117-.29.044-.117-1.853-4.663h.918l1.313 3.637 1.18-3.637h.89l-1.727 4.86zm7.144-5.778v5.581h-.853v-5.58h-1.91v-.775h4.655v.774h-1.892zm5.869 3.259c0 .366-.048.698-.144.994-.097.296-.24.551-.431.76a1.942 1.942 0 0 1-.707.486 2.56 2.56 0 0 1-.977.17c-.378 0-.704-.059-.976-.179a1.883 1.883 0 0 1-.68-.495 1.983 1.983 0 0 1-.397-.757 3.55 3.55 0 0 1-.126-.962c0-.36.047-.689.141-.991.094-.3.232-.557.42-.774a1.89 1.89 0 0 1 .7-.502c.282-.12.61-.182.98-.182.372 0 .695.062.968.185.272.123.501.293.686.51.182.215.32.473.407.769.091.296.135.619.135.968zm-.845 0a2.82 2.82 0 0 0-.074-.657 1.564 1.564 0 0 0-.237-.558 1.19 1.19 0 0 0-.431-.387 1.336 1.336 0 0 0-.645-.146 1.3 1.3 0 0 0-.651.15c-.18.099-.32.231-.426.395a1.73 1.73 0 0 0-.222.566 3.08 3.08 0 0 0-.068.663c0 .235.024.454.07.663.05.205.127.39.235.548.109.158.252.285.431.378.182.091.399.138.657.138s.475-.05.648-.146a1.2 1.2 0 0 0 .42-.393c.105-.162.178-.35.225-.563.044-.212.068-.429.068-.651zm5.607-2.341v4.258c0 .364-.035.678-.106.936-.067.258-.179.47-.337.633a1.35 1.35 0 0 1-.616.361 3.45 3.45 0 0 1-.941.112c-.264 0-.504-.027-.724-.08a1.662 1.662 0 0 1-.57-.26 1.256 1.256 0 0 1-.384-.47 1.872 1.872 0 0 1-.167-.71h.839c0 .162.026.297.085.405a.716.716 0 0 0 .235.261.954.954 0 0 0 .34.138c.129.026.264.041.402.041.281 0 .501-.041.66-.12a.762.762 0 0 0 .351-.34c.077-.144.12-.311.135-.502.015-.193.024-.396.024-.613v-.161a1.25 1.25 0 0 1-.607.475 2.1 2.1 0 0 1-.772.155c-.322 0-.604-.061-.844-.181s-.44-.282-.598-.487a2.039 2.039 0 0 1-.352-.71 3.13 3.13 0 0 1-.112-.856c0-.323.041-.628.126-.918.082-.287.209-.537.379-.745a1.78 1.78 0 0 1 .633-.501c.255-.124.551-.185.886-.185.27 0 .516.047.739.14.223.094.407.256.557.49v-.566h.739zm-.765 2.258c0-.234-.021-.448-.065-.642a1.5 1.5 0 0 0-.202-.51.967.967 0 0 0-.367-.337c-.155-.08-.34-.12-.554-.12a1.17 1.17 0 0 0-.59.137 1.188 1.188 0 0 0-.387.367c-.1.15-.17.32-.217.513a2.601 2.601 0 0 0-.003 1.17c.041.185.109.35.206.493.096.146.222.26.378.349.155.085.349.129.578.129.225 0 .419-.044.574-.13a1.08 1.08 0 0 0 .379-.348 1.42 1.42 0 0 0 .205-.493 2.51 2.51 0 0 0 .065-.578zm2.545.361c0 .19.03.376.088.549a1.323 1.323 0 0 0 .675.788c.164.08.354.12.571.12.323 0 .587-.076.786-.234.203-.155.332-.387.393-.692l.845.064c-.041.264-.123.49-.246.684-.124.19-.276.349-.455.475a1.947 1.947 0 0 1-.622.284 2.845 2.845 0 0 1-.756.094c-.396 0-.73-.07-1.003-.211a1.89 1.89 0 0 1-.663-.554 2.15 2.15 0 0 1-.358-.769 3.469 3.469 0 0 1-.108-.868c0-.337.047-.65.137-.944.094-.296.235-.554.42-.774a2.02 2.02 0 0 1 .683-.528c.27-.13.584-.194.939-.194.357 0 .668.062.926.185s.472.293.643.51c.17.215.296.467.378.754.082.29.12.601.12.939v.123a.88.88 0 0 1-.009.126h-3.384v.073zm2.53-.739a1.577 1.577 0 0 0-.09-.49 1.164 1.164 0 0 0-.229-.398 1.09 1.09 0 0 0-.363-.273 1.215 1.215 0 0 0-.496-.097c-.408 0-.719.114-.933.346-.214.232-.352.534-.419.912h2.53zm3.781-1.88v.684h-.839v2.592l.01.276a.59.59 0 0 0 .064.231c.035.07.09.124.16.165a.64.64 0 0 0 .297.058l.19-.006a.785.785 0 0 0 .188-.032v.666a2.497 2.497 0 0 1-.574.064c-.408 0-.701-.088-.883-.267-.179-.175-.27-.463-.27-.859v-2.888h-.774v-.684h.774v-1.396h.818v1.396h.839zm3.924 4.663v-2.745l-.024-.469a1.144 1.144 0 0 0-.111-.402.703.703 0 0 0-.27-.278.993.993 0 0 0-.487-.103c-.413 0-.73.123-.95.37-.217.246-.328.554-.328.926v2.701h-.827v-6.355h.827v2.223c.2-.229.422-.384.671-.472a2.4 2.4 0 0 1 .807-.132c.173 0 .346.023.516.067a1.3 1.3 0 0 1 .463.232c.138.1.244.214.314.337.073.124.126.253.158.39.033.138.053.282.059.429l.009.454v2.827h-.827zm2.61-2.044c0 .19.03.376.085.549a1.313 1.313 0 0 0 .674.789c.165.079.355.12.572.12.323 0 .587-.077.79-.235.199-.155.33-.387.39-.692l.847.064c-.044.264-.126.49-.25.684-.123.19-.272.349-.454.475a1.918 1.918 0 0 1-.622.284 2.808 2.808 0 0 1-.754.094c-.395 0-.73-.07-1.005-.211a1.854 1.854 0 0 1-.66-.554 2.206 2.206 0 0 1-.361-.769 3.61 3.61 0 0 1-.109-.868c0-.337.047-.65.141-.944.094-.296.232-.554.42-.774a1.98 1.98 0 0 1 .683-.528c.27-.13.58-.194.935-.194.361 0 .67.062.927.185.258.123.472.293.642.51.173.215.3.467.379.754.082.29.123.601.123.939v.123a.88.88 0 0 1-.009.126h-3.384v.073zm2.528-.739a1.577 1.577 0 0 0-.091-.49 1.164 1.164 0 0 0-.229-.398 1.09 1.09 0 0 0-.364-.273 1.196 1.196 0 0 0-.495-.097c-.408 0-.719.114-.93.346-.214.232-.355.534-.42.912h2.529zm2.575-1.88v.792c.12-.27.29-.475.507-.616a1.4 1.4 0 0 1 .771-.21 1.826 1.826 0 0 1 .358.034v.792l-.135-.015-.135-.002a1.389 1.389 0 0 0-.8.26 1.095 1.095 0 0 0-.29.32 1.44 1.44 0 0 0-.16.373 2.22 2.22 0 0 0-.067.41 7.493 7.493 0 0 0-.014.428v2.097h-.81v-4.663h.775z" fill="#fff"/><g fill="none"><path d="M1302.81 546.951h-519.765m519.765 36.153h-519.765m519.765 36.153h-519.765m519.765 36.153h-519.765m519.765 36.153h-519.765m519.765 36.153h-519.765m519.765 36.153h-519.765" stroke="#ff133f"/><path d="M1302.81 565.028h-519.765m519.765 36.153h-519.765m519.765 36.153h-519.765m519.765 36.153h-519.765m519.765 36.152h-519.765m519.765 36.153h-519.765" stroke="#fff"/></g><g fill="#0007ff"><path d="M805.151 540.952v-4.82h-13.142v4.82h13.142zM796.134 545.17v-13.256h-13.142v13.256h13.142zm9.017 13.859v-4.821h-13.142v4.821h13.142zM796.134 563.247v-13.257h-13.142v13.257h13.142zm9.017 31.935v-4.821h-13.142v4.821h13.142zM796.134 599.399v-13.256h-13.142v13.256h13.142zm9.017 31.936v-4.821h-13.142v4.821h13.142zM796.134 635.552v-13.256h-13.142v13.256h13.142zm9.017 31.935v-4.82h-13.142v4.82h13.142zM796.134 671.705v-13.256h-13.142v13.256h13.142zm9.017 31.935v-4.82h-13.142v4.82h13.142zM796.134 707.858v-13.256h-13.142v13.256h13.142zm9.017 31.935v-4.82h-13.142v4.82h13.142zM796.134 744.011v-13.256h-13.142v13.256h13.142zm9.017 31.935v-4.82h-13.142v4.82h13.142zM796.134 780.164v-13.256h-13.142v13.256h13.142zm9.017-203.059v-4.82h-13.142v4.82h13.142zM796.134 581.323v-13.256h-13.142v13.256h13.142zm9.017 31.935v-4.82h-13.142v4.82h13.142zM796.134 617.476v-13.256h-13.142v13.256h13.142zm9.017 31.935v-4.82h-13.142v4.82h13.142zM796.134 653.629v-13.256h-13.142v13.256h13.142zm9.017 31.935v-4.82h-13.142v4.82h13.142zM796.134 689.782v-13.256h-13.142v13.256h13.142zm9.017 31.935v-4.821h-13.142v4.821h13.142zM796.134 725.935v-13.256h-13.142v13.256h13.142zm9.017 31.935v-4.821h-13.142v4.821h13.142zM796.134 762.088v-13.256h-13.142v13.256h13.142z"/></g><g fill="none"><path d="M8.922 546.951h519.764m-519.764 36.153h519.764m-519.764 36.153h519.764m-519.764 36.153h519.764m-519.764 36.153h519.764m-519.764 36.153h519.764m-519.764 36.153h519.764" stroke="#ff133f"/><path d="M8.922 565.028h519.764m-519.764 36.153h519.764m-519.764 36.153h519.764m-519.764 36.153h519.764m-519.764 36.152h519.764m-519.764 36.153h519.764" stroke="#fff"/></g><g fill="#0007ff"><path d="M506.583 540.952v-4.82h13.143v4.82h-13.143zM515.6 545.17v-13.256h13.142v13.256h-13.142zm-9.017 13.859v-4.821h13.143v4.821h-13.143zM515.6 563.247v-13.257h13.142v13.257h-13.142zm-9.017 31.935v-4.821h13.143v4.821h-13.143zM515.6 599.399v-13.256h13.142v13.256h-13.142zm-9.017 31.936v-4.821h13.143v4.821h-13.143zM515.6 635.552v-13.256h13.142v13.256h-13.142zm-9.017 31.935v-4.82h13.143v4.82h-13.143zM515.6 671.705v-13.256h13.142v13.256h-13.142zm-9.017 31.935v-4.82h13.143v4.82h-13.143zM515.6 707.858v-13.256h13.142v13.256h-13.142zm-9.017 31.935v-4.82h13.143v4.82h-13.143zM515.6 744.011v-13.256h13.142v13.256h-13.142zm-9.017 31.935v-4.82h13.143v4.82h-13.143zM515.6 780.164v-13.256h13.142v13.256h-13.142zm-9.017-203.059v-4.82h13.143v4.82h-13.143zM515.6 581.323v-13.256h13.142v13.256h-13.142zm-9.017 31.935v-4.82h13.143v4.82h-13.143zM515.6 617.476v-13.256h13.142v13.256h-13.142zm-9.017 31.935v-4.82h13.143v4.82h-13.143zM515.6 653.629v-13.256h13.142v13.256h-13.142zm-9.017 31.935v-4.82h13.143v4.82h-13.143zM515.6 689.782v-13.256h13.142v13.256h-13.142zm-9.017 31.935v-4.821h13.143v4.821h-13.143zM515.6 725.935v-13.256h13.142v13.256h-13.142zm-9.017 31.935v-4.821h13.143v4.821h-13.143zM515.6 762.088v-13.256h13.142v13.256h-13.142z"/></g><g fill="none"><path d="M764.955 8.922v519.764m-36.153-519.764v519.764m-36.153-519.764v519.764m-36.153-519.764v519.764m-36.153-519.764v519.764m-36.153-519.764v519.764m-36.153-519.764v519.764" stroke="#ff133f"/><path d="M746.878 8.922v519.764m-36.153-519.764v519.764m-36.152-519.764v519.764m-36.153-519.764v519.764m-36.153-519.764v519.764m-36.153-519.764v519.764" stroke="#fff"/></g><g fill="#0007ff"><path d="M770.954 506.583h4.82v13.142h-4.82zM766.736 515.6h13.256v13.142h-13.256zm-13.859-9.017h4.82v13.142h-4.82zM748.66 515.6h13.256v13.142h-13.256zm-31.935-9.017h4.82v13.142h-4.82zM712.507 515.6h13.256v13.142h-13.256zm-31.935-9.017h4.82v13.142h-4.82zM676.354 515.6h13.256v13.142h-13.256zm-31.935-9.017h4.82v13.142h-4.82zM640.201 515.6h13.256v13.142h-13.256zm-31.935-9.017h4.82v13.142h-4.82zM604.048 515.6h13.256v13.142h-13.256zm-31.935-9.017h4.82v13.142h-4.82zM567.895 515.6h13.256v13.142h-13.256zm-31.935-9.017h4.82v13.142h-4.82zM531.742 515.6h13.256v13.142h-13.256zm203.059-9.017h4.82v13.142h-4.82zM730.583 515.6h13.256v13.142h-13.256zm-31.935-9.017h4.82v13.142h-4.82zM694.43 515.6h13.256v13.142h-13.256zm-31.935-9.017h4.82v13.142h-4.82zM658.277 515.6h13.256v13.142h-13.256zm-31.935-9.017h4.82v13.142h-4.82zM622.124 515.6h13.256v13.142h-13.256zm-31.935-9.017h4.82v13.142h-4.82zM585.971 515.6h13.256v13.142h-13.256zm-31.935-9.017h4.82v13.142h-4.82zM549.819 515.6h13.256v13.142h-13.256z"/></g></svg>