<?xml version="1.0" encoding="UTF-8" standalone="no"?>
<!DOCTYPE svg PUBLIC "-//W3C//DTD SVG 1.1//EN" "http://www.w3.org/Graphics/SVG/1.1/DTD/svg11.dtd">
<svg width="100%" height="100%" viewBox="0 0 1312 1312" version="1.1" xmlns="http://www.w3.org/2000/svg" xmlns:xlink="http://www.w3.org/1999/xlink" xml:space="preserve" style="fill-rule:evenodd;clip-rule:evenodd;stroke-linejoin:round;stroke-miterlimit:1.41421;">
    <g>
        <rect x="756.035" y="783.045" width="17.84" height="519.765" style="fill:rgb(255,19,63);fill-rule:nonzero;"/>
        <rect x="719.882" y="783.045" width="17.84" height="519.765" style="fill:rgb(255,19,63);fill-rule:nonzero;"/>
        <rect x="683.729" y="783.045" width="17.84" height="519.765" style="fill:rgb(255,19,63);fill-rule:nonzero;"/>
        <rect x="647.576" y="783.045" width="17.84" height="519.765" style="fill:rgb(255,19,63);fill-rule:nonzero;"/>
        <rect x="611.423" y="783.045" width="17.84" height="519.765" style="fill:rgb(255,19,63);fill-rule:nonzero;"/>
        <rect x="575.27" y="783.045" width="17.84" height="519.765" style="fill:rgb(255,19,63);fill-rule:nonzero;"/>
        <rect x="539.117" y="783.045" width="17.84" height="519.765" style="fill:rgb(255,19,63);fill-rule:nonzero;"/>
        <rect x="737.958" y="783.045" width="17.84" height="519.765" style="fill:white;fill-rule:nonzero;"/>
        <rect x="701.805" y="783.045" width="17.84" height="519.765" style="fill:white;fill-rule:nonzero;"/>
        <rect x="665.653" y="783.045" width="17.84" height="519.765" style="fill:white;fill-rule:nonzero;"/>
        <rect x="629.5" y="783.045" width="17.84" height="519.765" style="fill:white;fill-rule:nonzero;"/>
        <rect x="593.347" y="783.045" width="17.84" height="519.765" style="fill:white;fill-rule:nonzero;"/>
        <rect x="557.194" y="783.045" width="17.84" height="519.765" style="fill:white;fill-rule:nonzero;"/>
        <g>
            <g>
                <path d="M779.992,796.134L775.774,796.134L775.774,805.151L770.954,805.151L770.954,796.134L766.736,796.134L766.736,782.992L779.992,782.992L779.992,796.134ZM761.916,796.134L757.697,796.134L757.697,805.151L752.877,805.151L752.877,796.134L748.66,796.134L748.66,782.992L761.916,782.992L761.916,796.134ZM725.763,796.134L721.545,796.134L721.545,805.151L716.725,805.151L716.725,796.134L712.507,796.134L712.507,782.992L725.763,782.992L725.763,796.134ZM689.61,796.134L685.392,796.134L685.392,805.151L680.572,805.151L680.572,796.134L676.354,796.134L676.354,782.992L689.61,782.992L689.61,796.134ZM653.457,796.134L649.239,796.134L649.239,805.151L644.419,805.151L644.419,796.134L640.201,796.134L640.201,782.992L653.457,782.992L653.457,796.134ZM617.304,796.134L613.086,796.134L613.086,805.151L608.266,805.151L608.266,796.134L604.048,796.134L604.048,782.992L617.304,782.992L617.304,796.134ZM581.151,796.134L576.933,796.134L576.933,805.151L572.113,805.151L572.113,796.134L567.895,796.134L567.895,782.992L581.151,782.992L581.151,796.134ZM544.998,796.134L540.78,796.134L540.78,805.151L535.96,805.151L535.96,796.134L531.742,796.134L531.742,782.992L544.998,782.992L544.998,796.134ZM743.839,796.134L739.621,796.134L739.621,805.151L734.801,805.151L734.801,796.134L730.583,796.134L730.583,782.992L743.839,782.992L743.839,796.134ZM707.686,796.134L703.468,796.134L703.468,805.151L698.648,805.151L698.648,796.134L694.43,796.134L694.43,782.992L707.686,782.992L707.686,796.134ZM671.533,796.134L667.315,796.134L667.315,805.151L662.495,805.151L662.495,796.134L658.277,796.134L658.277,782.992L671.533,782.992L671.533,796.134ZM635.38,796.134L631.162,796.134L631.162,805.151L626.342,805.151L626.342,796.134L622.124,796.134L622.124,782.992L635.38,782.992L635.38,796.134ZM599.227,796.134L595.009,796.134L595.009,805.151L590.189,805.151L590.189,796.134L585.971,796.134L585.971,782.992L599.227,782.992L599.227,796.134ZM563.075,796.134L558.856,796.134L558.856,805.151L554.036,805.151L554.036,796.134L549.819,796.134L549.819,782.992L563.075,782.992L563.075,796.134Z" style="fill:rgb(0,7,255);"/>
            </g>
        </g>
    </g>
    <rect x="531.742" y="531.742" width="248.25" height="248.25" style="fill:rgb(0,7,255);"/>
    <path d="M721.675,753.198L715.39,753.198L715.39,747.902L724.795,747.902C724.981,747.658 725.14,747.391 725.272,747.102L713.787,747.102L707.111,747.102L707.111,753.198L703.332,753.198L703.332,746.22L725.569,746.22C725.628,745.963 725.668,745.697 725.689,745.42L701.069,745.42L699.288,745.42L699.288,744.538L725.689,744.538C725.668,744.263 725.626,743.996 725.565,743.738L703.332,743.738L703.332,736.745L713.721,736.745L713.721,740.373L707.111,740.373L707.111,742.856L725.261,742.856C725.129,742.566 724.97,742.299 724.785,742.056L715.39,742.056L715.39,736.745L721.675,736.745C722.788,736.745 723.832,736.97 724.807,737.421C725.783,737.872 726.635,738.472 727.365,739.221C727.375,739.232 727.385,739.243 727.396,739.253L727.399,739.257L727.405,739.263L727.417,739.276L727.437,739.296L727.443,739.303L727.461,739.323L727.467,739.329C727.478,739.34 727.488,739.35 727.498,739.361L727.5,739.363L727.505,739.37L727.52,739.386L727.533,739.399L727.538,739.405L727.546,739.413L727.56,739.429L727.566,739.435L727.568,739.438C727.578,739.449 727.588,739.46 727.598,739.471L727.603,739.476L727.627,739.504L727.631,739.508L727.637,739.515L727.646,739.526L727.657,739.538L727.663,739.545L727.667,739.549L727.671,739.554L727.694,739.58L727.696,739.582C727.705,739.593 727.715,739.604 727.724,739.615L727.727,739.619L727.733,739.626L727.745,739.639L727.753,739.65L727.759,739.656L727.763,739.661L727.785,739.687L727.79,739.693L727.791,739.695C727.801,739.706 727.81,739.717 727.819,739.729L727.821,739.731L727.827,739.738L727.841,739.755L727.848,739.763L727.852,739.769L727.857,739.775L727.865,739.784L727.877,739.799L727.883,739.807L727.885,739.81C727.894,739.821 727.903,739.832 727.912,739.844L727.917,739.85L727.935,739.872L727.94,739.878L727.943,739.883L727.949,739.89L727.958,739.902L727.968,739.914L727.973,739.921L727.977,739.926L727.981,739.932L728,739.955L728.004,739.961C728.013,739.972 728.021,739.984 728.03,739.995L728.039,740.007L728.05,740.021L728.062,740.038L728.067,740.044L728.085,740.069L728.093,740.08C728.101,740.091 728.11,740.102 728.118,740.114L728.12,740.116L728.126,740.125L728.139,740.142L728.144,740.15L728.149,740.156L728.161,740.173L728.171,740.187L728.177,740.196L728.183,740.204L728.205,740.236L728.211,740.243L728.226,740.265L728.229,740.27L728.239,740.285L728.255,740.307L728.265,740.322L728.269,740.327L728.282,740.347L728.288,740.356L728.29,740.358C728.297,740.37 728.305,740.381 728.313,740.393L728.316,740.397L728.323,740.408L728.332,740.421L728.337,740.429L728.343,740.438L728.348,740.446L728.352,740.453L728.362,740.467L728.37,740.479L728.372,740.483C728.379,740.494 728.387,740.505 728.394,740.517L728.396,740.52L728.404,740.533L728.414,740.548L728.417,740.554L728.422,740.562L728.429,740.572L728.441,740.591L728.449,740.603L728.452,740.609L728.454,740.612L728.465,740.63L728.474,740.645L728.484,740.661L728.496,740.679L728.5,740.687L728.508,740.7L728.514,740.709L728.518,740.717L728.526,740.729L728.531,740.738L728.533,740.741L728.54,740.753L728.551,740.771L728.566,740.798L728.576,740.814L728.586,740.831L728.594,740.844L728.601,740.856L728.607,740.868L728.61,740.872L728.615,740.881C728.631,740.909 728.647,740.937 728.662,740.965L728.673,740.985L728.682,741.001L728.684,741.005L728.687,741.01L728.697,741.029L728.703,741.039C728.721,741.071 728.738,741.104 728.755,741.137L728.768,741.16L728.775,741.173L734.158,741.173L734.158,740.367L729.827,740.367L729.827,736.745L742.549,736.745L742.549,739.491L748.727,739.491L749.613,736.745L751.6,742.907L758.075,742.892L752.829,746.687L754.843,752.84L749.613,749.023L744.384,752.84L745.16,750.467L738.293,750.467L738.293,753.198L734.158,753.198L734.158,749.585L745.449,749.585L745.711,748.784L732.569,748.784L728.771,748.784C728.748,748.828 728.725,748.871 728.702,748.915L728.7,748.917L728.699,748.919L728.69,748.936L728.683,748.949L728.682,748.95L728.682,748.951C728.665,748.982 728.648,749.013 728.63,749.043L728.628,749.048L728.626,749.051L728.618,749.066L728.61,749.078L728.609,749.08L728.606,749.086C728.59,749.114 728.574,749.142 728.557,749.17L728.553,749.177L728.551,749.181L728.543,749.193L728.536,749.205L728.534,749.209L728.529,749.217C728.514,749.243 728.498,749.269 728.482,749.295L728.476,749.305L728.473,749.309L728.467,749.32L728.46,749.331L728.457,749.336L728.45,749.346L728.441,749.361L728.437,749.367L728.437,749.368L728.426,749.385L728.415,749.403L728.405,749.418L728.397,749.431L728.394,749.435L728.388,749.444L728.381,749.455L728.377,749.462L728.37,749.472L728.362,749.485L728.358,749.491L728.357,749.493L728.342,749.516L728.335,749.526L728.326,749.54L728.316,749.555L728.313,749.56L728.308,749.567L728.301,749.577L728.295,749.586L728.288,749.597L728.28,749.608L728.277,749.613L728.274,749.617L728.258,749.64L728.253,749.648L728.246,749.659L728.232,749.678L728.229,749.682L728.225,749.689L728.218,749.698L728.211,749.708L728.204,749.719L728.197,749.729L728.193,749.734L728.19,749.739L728.174,749.761L728.169,749.769L728.164,749.775L728.147,749.799L728.144,749.803L728.14,749.808L728.134,749.817L728.125,749.829L728.118,749.84L728.111,749.848L728.107,749.853L728.103,749.859L728.088,749.88L728.083,749.887L728.082,749.889C728.073,749.9 728.065,749.911 728.056,749.923L728.053,749.927L728.047,749.935L728.037,749.948L728.029,749.958L728.024,749.966L728.02,749.971L728.015,749.978L727.999,749.998L727.994,750.005L727.993,750.006C727.984,750.017 727.976,750.029 727.967,750.04L727.964,750.043L727.958,750.051L727.947,750.066L727.939,750.075L727.934,750.082L727.93,750.087L727.924,750.095L727.909,750.114L727.904,750.12L727.902,750.122C727.893,750.133 727.884,750.145 727.875,750.156L727.873,750.158L727.867,750.165L727.855,750.182L727.847,750.19L727.842,750.196L727.838,750.202L727.831,750.21L727.817,750.228L727.811,750.234L727.81,750.236C727.8,750.248 727.791,750.259 727.782,750.27L727.78,750.272L727.775,750.278L727.76,750.296L727.753,750.304L727.749,750.309L727.744,750.315L727.736,750.324L727.722,750.34L727.717,750.347L727.715,750.349C727.705,750.36 727.696,750.371 727.686,750.382L727.685,750.384L727.68,750.389L727.663,750.409L727.657,750.416L727.653,750.421L727.647,750.427L727.639,750.436L727.626,750.451L727.62,750.458L727.618,750.46C727.608,750.471 727.598,750.482 727.588,750.493L727.587,750.494L727.584,750.498L727.564,750.52L727.558,750.526L727.554,750.531L727.549,750.536L727.539,750.547L727.527,750.561L727.521,750.567L727.518,750.57C727.508,750.581 727.498,750.592 727.488,750.602L727.488,750.603L727.485,750.605L727.463,750.629L727.458,750.635L727.454,750.639L727.449,750.645L727.438,750.656L727.426,750.668L727.42,750.675L727.417,750.678C727.407,750.689 727.397,750.699 727.386,750.71C726.657,751.467 725.804,752.07 724.829,752.521C724.814,752.528 724.798,752.535 724.783,752.542L724.766,752.55L724.737,752.563L724.714,752.573L724.691,752.583L724.662,752.596L724.645,752.603L724.608,752.619L724.599,752.623C723.689,753.006 722.714,753.198 721.675,753.198L721.675,753.198ZM720.613,750.007C723.088,750.007 723.857,748.784 723.857,748.784L719.206,748.784L719.206,750.007L720.613,750.007ZM729.433,747.102C729.36,747.372 729.272,747.638 729.17,747.902L746,747.902L746.262,747.102L729.433,747.102ZM744.647,745.42L729.704,745.42C729.69,745.689 729.662,745.956 729.621,746.22L745.753,746.22L744.647,745.42ZM729.624,743.738C729.664,744.002 729.691,744.268 729.705,744.538L743.427,744.538L742.32,743.738L729.624,743.738ZM729.175,742.056C729.277,742.319 729.365,742.586 729.438,742.856L747.642,742.856L747.9,742.056L729.175,742.056ZM748.443,740.373L738.293,740.373L738.293,741.173L748.185,741.173L748.443,740.373L748.443,740.373ZM720.613,739.935L719.206,739.935L719.206,741.173L723.859,741.173C723.859,741.173 722.37,739.935 720.613,739.935Z" style="fill:white;"/>
    <rect x="554.674" y="713.668" width="200.527" height="0.75" style="fill:white;"/>
    <g transform="matrix(2.9326,0,0,2.9326,107.569,46.4337)">
        <path d="M156.912,175.41L156.912,186.016L155.783,186.016L155.783,175.41L152.46,175.41L152.46,174.461L160.267,174.461L160.267,175.41L156.912,175.41Z" style="fill:white;fill-rule:nonzero;"/>
        <rect x="158.663" y="180.811" width="4.141" height="0.9" style="fill:white;"/>
        <path d="M174.36,182.612C174.109,183.779 173.585,184.672 172.789,185.288C171.992,185.905 170.999,186.213 169.81,186.213C168.948,186.213 168.203,186.049 167.576,185.722C166.948,185.394 166.435,184.955 166.037,184.404C165.639,183.853 165.344,183.22 165.153,182.506C164.962,181.791 164.867,181.041 164.867,180.255C164.867,179.022 165.039,178.018 165.382,177.243C165.726,176.469 166.152,175.857 166.659,175.41C167.166,174.963 167.712,174.657 168.296,174.494C168.88,174.33 169.412,174.248 169.892,174.248C170.448,174.248 170.972,174.33 171.463,174.494C171.954,174.657 172.388,174.895 172.764,175.206C173.141,175.516 173.452,175.893 173.697,176.335C173.943,176.777 174.109,177.276 174.196,177.833L173.034,178.029C172.914,177.189 172.565,176.518 171.987,176.016C171.408,175.514 170.694,175.263 169.843,175.263C169.155,175.263 168.571,175.407 168.091,175.697C167.611,175.986 167.221,176.365 166.921,176.834C166.621,177.303 166.403,177.833 166.266,178.422C166.13,179.011 166.062,179.606 166.062,180.206C166.062,180.806 166.13,181.406 166.266,182.006C166.403,182.606 166.621,183.144 166.921,183.619C167.221,184.093 167.611,184.478 168.091,184.772C168.571,185.067 169.161,185.214 169.859,185.214C170.295,185.214 170.705,185.152 171.087,185.026C171.468,184.901 171.807,184.718 172.101,184.478C172.396,184.238 172.639,183.946 172.83,183.602C173.021,183.258 173.149,182.868 173.214,182.432L174.36,182.612Z" style="fill:white;fill-rule:nonzero;"/>
        <path d="M181.709,186.016L181.709,180.926C181.709,180.555 181.69,180.211 181.652,179.895C181.614,179.578 181.526,179.303 181.39,179.068C181.254,178.834 181.054,178.651 180.793,178.52C180.531,178.389 180.171,178.324 179.712,178.324C179.221,178.324 178.823,178.414 178.517,178.594C178.212,178.774 177.972,179.003 177.797,179.281C177.623,179.559 177.503,179.873 177.437,180.222C177.372,180.571 177.339,180.91 177.339,181.237L177.339,186.016L176.291,186.016L176.291,174.461L177.339,174.461L177.339,178.618C177.677,178.182 178.07,177.865 178.517,177.669C178.965,177.472 179.461,177.374 180.007,177.374C180.574,177.374 181.038,177.456 181.398,177.62C181.758,177.783 182.039,178.002 182.241,178.274C182.443,178.547 182.582,178.858 182.658,179.207C182.735,179.557 182.773,179.917 182.773,180.288L182.773,186.016L181.709,186.016Z" style="fill:white;fill-rule:nonzero;"/>
        <path d="M186.374,177.554L186.374,186.016L185.294,186.016L185.294,177.554L186.374,177.554ZM185.294,174.461L186.374,174.461L186.374,175.934L185.294,175.934L185.294,174.461Z" style="fill:white;fill-rule:nonzero;"/>
        <path d="M189.909,177.554L189.909,178.749C190.215,178.302 190.6,177.969 191.063,177.751C191.527,177.532 192.026,177.423 192.561,177.423C193.216,177.423 193.772,177.543 194.23,177.783C194.689,178.023 195.06,178.345 195.343,178.749C195.627,179.153 195.834,179.619 195.965,180.149C196.096,180.678 196.162,181.232 196.162,181.81C196.162,182.366 196.096,182.909 195.965,183.438C195.834,183.968 195.624,184.434 195.335,184.838C195.046,185.242 194.678,185.566 194.23,185.812C193.783,186.057 193.243,186.18 192.61,186.18C192.075,186.18 191.563,186.071 191.071,185.853C190.58,185.634 190.193,185.285 189.909,184.805L189.909,188.93L188.878,188.93L188.878,177.554L189.909,177.554ZM195.114,181.679C195.114,181.275 195.071,180.871 194.983,180.468C194.896,180.064 194.749,179.701 194.541,179.379C194.334,179.057 194.07,178.795 193.748,178.594C193.426,178.392 193.025,178.291 192.545,178.291C192.054,178.291 191.639,178.384 191.301,178.569C190.962,178.755 190.69,179.003 190.482,179.314C190.275,179.625 190.125,179.988 190.032,180.402C189.939,180.817 189.893,181.253 189.893,181.712C189.893,182.235 189.939,182.716 190.032,183.152C190.125,183.589 190.278,183.965 190.49,184.281C190.703,184.598 190.979,184.843 191.317,185.018C191.655,185.193 192.064,185.28 192.545,185.28C193.025,185.28 193.428,185.173 193.756,184.961C194.083,184.748 194.348,184.47 194.55,184.126C194.751,183.782 194.896,183.395 194.983,182.964C195.071,182.533 195.114,182.105 195.114,181.679L195.114,181.679Z" style="fill:white;fill-rule:nonzero;"/>
        <path d="M156.208,196.246L154.768,192.032L156.347,192.032L156.994,194.609L157.616,192.032L159.204,192.032L157.706,196.246L156.208,196.246L156.208,196.246Z" style="fill:white;fill-rule:nonzero;"/>
        <path d="M161.25,196.246L161.25,192.604L159.924,192.604L159.924,191.516C160.077,191.516 160.236,191.508 160.403,191.491C160.569,191.475 160.724,191.435 160.869,191.373C161.014,191.31 161.136,191.216 161.237,191.09C161.338,190.965 161.4,190.796 161.421,190.583L162.682,190.583L162.682,196.246L161.25,196.246L161.25,196.246Z" style="fill:white;fill-rule:nonzero;"/>
        <rect x="164.261" y="194.798" width="1.489" height="1.449" style="fill:white;"/>
        <path d="M166.348,193.464C166.348,193.235 166.362,193.003 166.389,192.768C166.416,192.533 166.464,192.307 166.532,192.089C166.6,191.871 166.696,191.665 166.819,191.471C166.941,191.277 167.098,191.104 167.289,190.951C167.497,190.788 167.712,190.668 167.936,190.591C168.159,190.515 168.402,190.477 168.664,190.477C169.03,190.477 169.349,190.552 169.622,190.702C169.894,190.852 170.121,191.056 170.301,191.315C170.481,191.575 170.616,191.876 170.706,192.22C170.796,192.563 170.841,192.932 170.841,193.325C170.841,193.701 170.8,194.071 170.718,194.433C170.636,194.796 170.505,195.12 170.325,195.403C170.145,195.687 169.909,195.916 169.618,196.091C169.326,196.265 168.967,196.353 168.541,196.353C168.263,196.353 168,196.303 167.752,196.205C167.503,196.107 167.281,195.957 167.085,195.755C166.932,195.597 166.808,195.429 166.712,195.252C166.617,195.075 166.542,194.888 166.487,194.691C166.433,194.495 166.396,194.293 166.377,194.086C166.358,193.878 166.348,193.671 166.348,193.464L166.348,193.464ZM167.764,193.365C167.764,193.513 167.771,193.687 167.784,193.889C167.798,194.091 167.832,194.285 167.887,194.47C167.941,194.656 168.024,194.814 168.136,194.945C168.248,195.076 168.405,195.141 168.607,195.141C168.803,195.141 168.956,195.08 169.065,194.957C169.174,194.834 169.255,194.683 169.307,194.503C169.358,194.323 169.388,194.132 169.397,193.93C169.405,193.728 169.409,193.551 169.409,193.398C169.409,193.235 169.403,193.054 169.392,192.858C169.382,192.662 169.349,192.478 169.294,192.306C169.24,192.134 169.161,191.991 169.057,191.876C168.953,191.761 168.806,191.704 168.615,191.704C168.424,191.704 168.271,191.764 168.157,191.884C168.042,192.004 167.956,192.152 167.899,192.326C167.842,192.501 167.805,192.682 167.788,192.87C167.772,193.059 167.764,193.224 167.764,193.365Z" style="fill:white;fill-rule:nonzero;"/>
        <path d="M152.95,236.513L152.95,237.421L152.462,237.421L152.462,235.255L154.055,235.255L154.055,235.657L152.95,235.657L152.95,236.123L153.92,236.123L153.92,236.513L152.95,236.513L152.95,236.513Z" style="fill:white;fill-rule:nonzero;"/>
        <path d="M155.003,235.255C155.132,235.255 155.258,235.265 155.382,235.285C155.506,235.306 155.622,235.356 155.731,235.436C155.802,235.489 155.863,235.55 155.913,235.618C155.963,235.687 156.004,235.76 156.034,235.839C156.065,235.918 156.088,236 156.102,236.085C156.116,236.17 156.123,236.255 156.123,236.341C156.123,236.443 156.112,236.545 156.09,236.646C156.067,236.748 156.032,236.843 155.985,236.932C155.938,237.021 155.878,237.101 155.806,237.173C155.733,237.244 155.647,237.3 155.546,237.341C155.456,237.378 155.364,237.401 155.27,237.409C155.176,237.417 155.081,237.421 154.985,237.421L154.288,237.421L154.288,235.255L155.003,235.255ZM154.773,237.019L154.917,237.019C155.001,237.019 155.085,237.015 155.167,237.005C155.25,236.996 155.324,236.97 155.388,236.926C155.453,236.882 155.505,236.813 155.545,236.718C155.585,236.624 155.605,236.491 155.605,236.319C155.605,236.268 155.601,236.214 155.594,236.155C155.587,236.097 155.574,236.041 155.556,235.986C155.537,235.932 155.512,235.882 155.479,235.836C155.446,235.79 155.404,235.754 155.353,235.727C155.29,235.692 155.217,235.672 155.135,235.667C155.053,235.662 154.977,235.66 154.905,235.66L154.773,235.66L154.773,237.019Z" style="fill:white;fill-rule:nonzero;"/>
        <path d="M157.259,237.421L156.774,237.421L156.774,235.657L156.126,235.657L156.126,235.255L157.906,235.255L157.906,235.657L157.259,235.657L157.259,237.421Z" style="fill:white;fill-rule:nonzero;"/>
        <rect x="158.919" y="235.255" width="0.488" height="2.167" style="fill:white;"/>
        <path d="M160.672,237.421L160.672,236.485C160.672,236.446 160.667,236.409 160.659,236.373C160.651,236.337 160.638,236.305 160.619,236.276C160.601,236.248 160.577,236.225 160.547,236.207C160.518,236.19 160.48,236.181 160.435,236.181C160.382,236.181 160.338,236.192 160.302,236.214C160.266,236.235 160.238,236.263 160.217,236.298C160.197,236.333 160.183,236.371 160.174,236.413C160.166,236.455 160.162,236.497 160.162,236.54L160.162,237.421L159.708,237.421L159.708,235.831L160.15,235.831L160.15,236.016C160.205,235.944 160.269,235.889 160.342,235.851C160.414,235.814 160.497,235.795 160.589,235.795C160.648,235.795 160.707,235.803 160.765,235.819C160.823,235.836 160.876,235.862 160.923,235.899C161.013,235.969 161.071,236.05 161.097,236.143C161.122,236.236 161.135,236.337 161.135,236.445L161.135,237.421L160.672,237.421Z" style="fill:white;fill-rule:nonzero;"/>
        <path d="M162.436,237.421L162.436,237.268C162.389,237.339 162.328,237.389 162.252,237.418C162.176,237.447 162.098,237.461 162.016,237.461C161.903,237.461 161.804,237.438 161.72,237.391C161.635,237.343 161.564,237.281 161.508,237.203C161.452,237.126 161.409,237.038 161.38,236.939C161.352,236.841 161.338,236.742 161.338,236.642C161.338,236.533 161.351,236.428 161.379,236.326C161.407,236.223 161.449,236.133 161.506,236.054C161.564,235.975 161.636,235.912 161.724,235.864C161.812,235.816 161.917,235.792 162.037,235.792C162.109,235.792 162.176,235.804 162.24,235.828C162.303,235.853 162.363,235.889 162.418,235.936L162.418,235.255L162.875,235.255L162.875,237.421L162.436,237.421L162.436,237.421ZM162.433,236.636C162.433,236.582 162.429,236.528 162.421,236.471C162.413,236.415 162.397,236.364 162.375,236.318C162.352,236.272 162.32,236.235 162.278,236.206C162.236,236.177 162.182,236.163 162.117,236.163C162.056,236.163 162.004,236.177 161.964,236.206C161.923,236.235 161.89,236.271 161.865,236.316C161.841,236.361 161.823,236.411 161.813,236.465C161.803,236.519 161.798,236.571 161.798,236.62C161.798,236.675 161.802,236.731 161.812,236.786C161.821,236.841 161.838,236.891 161.862,236.935C161.887,236.979 161.92,237.015 161.962,237.044C162.004,237.072 162.058,237.087 162.123,237.087C162.187,237.087 162.238,237.073 162.278,237.045C162.318,237.018 162.35,236.982 162.373,236.939C162.397,236.896 162.413,236.848 162.421,236.794C162.429,236.739 162.433,236.687 162.433,236.636L162.433,236.636Z" style="fill:white;fill-rule:nonzero;"/>
        <path d="M164.133,237.421L164.133,237.246C164.111,237.283 164.082,237.315 164.047,237.341C164.013,237.368 163.975,237.39 163.935,237.407C163.895,237.425 163.854,237.438 163.81,237.447C163.766,237.456 163.723,237.461 163.682,237.461C163.557,237.461 163.46,237.439 163.389,237.394C163.319,237.349 163.266,237.291 163.231,237.222C163.196,237.152 163.174,237.076 163.165,236.995C163.156,236.913 163.151,236.834 163.151,236.758L163.151,235.831L163.602,235.831L163.602,236.743C163.602,236.786 163.605,236.828 163.612,236.87C163.618,236.912 163.629,236.949 163.647,236.981C163.664,237.013 163.689,237.038 163.722,237.058C163.755,237.077 163.798,237.087 163.851,237.087C163.908,237.087 163.955,237.075 163.991,237.053C164.026,237.03 164.054,237 164.073,236.962C164.093,236.925 164.106,236.88 164.113,236.827C164.121,236.775 164.124,236.719 164.124,236.66L164.124,235.831L164.563,235.831L164.563,237.421L164.133,237.421L164.133,237.421Z" style="fill:white;fill-rule:nonzero;"/>
        <path d="M165.192,236.863C165.206,236.967 165.241,237.037 165.295,237.073C165.349,237.109 165.427,237.127 165.53,237.127C165.554,237.127 165.58,237.125 165.606,237.122C165.633,237.119 165.658,237.112 165.68,237.1C165.703,237.089 165.721,237.074 165.735,237.054C165.75,237.035 165.757,237.01 165.757,236.979C165.757,236.932 165.733,236.897 165.686,236.873C165.639,236.85 165.581,236.83 165.511,236.815C165.442,236.8 165.366,236.783 165.284,236.766C165.202,236.749 165.127,236.722 165.057,236.686C164.988,236.65 164.929,236.602 164.882,236.54C164.835,236.479 164.812,236.395 164.812,236.289C164.812,236.195 164.831,236.116 164.87,236.052C164.909,235.989 164.959,235.937 165.022,235.897C165.084,235.858 165.155,235.829 165.235,235.812C165.315,235.794 165.395,235.785 165.474,235.785C165.562,235.785 165.647,235.795 165.729,235.815C165.811,235.834 165.884,235.865 165.947,235.908C166.01,235.951 166.063,236.007 166.104,236.075C166.144,236.144 166.167,236.227 166.171,236.326L165.748,236.347C165.746,236.304 165.736,236.268 165.718,236.24C165.701,236.211 165.68,236.187 165.654,236.169C165.628,236.151 165.599,236.137 165.567,236.129C165.534,236.121 165.501,236.117 165.468,236.117C165.448,236.117 165.424,236.118 165.398,236.122C165.371,236.125 165.347,236.131 165.326,236.14C165.304,236.149 165.286,236.162 165.27,236.18C165.255,236.197 165.247,236.221 165.247,236.252C165.247,236.293 165.271,236.324 165.319,236.344C165.368,236.364 165.427,236.382 165.499,236.398C165.571,236.413 165.648,236.43 165.732,236.448C165.816,236.467 165.894,236.494 165.965,236.531C166.037,236.568 166.097,236.618 166.145,236.682C166.193,236.745 166.217,236.829 166.217,236.933C166.217,237.036 166.196,237.121 166.154,237.189C166.112,237.258 166.057,237.313 165.988,237.354C165.92,237.395 165.843,237.424 165.757,237.441C165.671,237.459 165.585,237.467 165.499,237.467C165.415,237.467 165.329,237.457 165.241,237.437C165.153,237.416 165.074,237.383 165.003,237.338C164.933,237.293 164.875,237.235 164.83,237.162C164.785,237.089 164.762,237.001 164.762,236.896L164.762,236.878L165.192,236.863L165.192,236.863Z" style="fill:white;fill-rule:nonzero;"/>
        <path d="M166.975,236.175L166.975,236.89C166.975,236.956 166.985,237.003 167.006,237.031C167.026,237.06 167.073,237.074 167.147,237.074C167.17,237.074 167.19,237.074 167.208,237.073C167.227,237.072 167.247,237.07 167.27,237.068L167.27,237.418C167.192,237.428 167.13,237.434 167.083,237.437C167.036,237.439 166.995,237.44 166.96,237.44C166.868,237.44 166.793,237.429 166.736,237.407C166.678,237.386 166.634,237.354 166.602,237.311C166.571,237.268 166.55,237.216 166.539,237.154C166.529,237.093 166.524,237.022 166.524,236.942L166.524,236.175L166.297,236.175L166.297,235.831L166.524,235.831L166.524,235.362L166.975,235.362L166.975,235.831L167.254,235.831L167.254,236.175L166.975,236.175L166.975,236.175Z" style="fill:white;fill-rule:nonzero;"/>
        <path d="M167.911,236.092C167.954,235.982 168.009,235.906 168.075,235.864C168.142,235.822 168.224,235.801 168.322,235.801C168.333,235.801 168.343,235.801 168.355,235.801C168.366,235.801 168.382,235.803 168.402,235.807L168.402,236.218C168.38,236.214 168.361,236.212 168.347,236.211C168.333,236.209 168.315,236.209 168.295,236.209C168.213,236.209 168.148,236.222 168.1,236.249C168.052,236.275 168.016,236.31 167.991,236.352C167.966,236.394 167.951,236.44 167.943,236.491C167.936,236.542 167.933,236.592 167.933,236.639L167.933,237.421L167.469,237.421L167.469,235.831L167.911,235.831L167.911,236.092Z" style="fill:white;fill-rule:nonzero;"/>
        <path d="M168.982,237.421L168.534,237.421L168.534,235.831L168.982,235.831L168.982,237.421ZM168.982,235.663L168.534,235.663L168.534,235.255L168.982,235.255L168.982,235.663Z" style="fill:white;fill-rule:nonzero;"/>
        <path d="M169.657,236.758C169.672,236.857 169.707,236.938 169.762,237.002C169.817,237.067 169.897,237.099 170.001,237.099C170.073,237.099 170.132,237.086 170.178,237.059C170.224,237.032 170.264,236.99 170.299,236.93L170.753,236.961C170.696,237.131 170.598,237.258 170.46,237.341C170.322,237.425 170.165,237.467 169.989,237.467C169.864,237.467 169.752,237.446 169.651,237.404C169.551,237.362 169.467,237.304 169.398,237.229C169.33,237.155 169.277,237.066 169.24,236.964C169.203,236.862 169.185,236.749 169.185,236.626C169.185,236.508 169.204,236.397 169.242,236.295C169.279,236.193 169.334,236.104 169.404,236.028C169.475,235.952 169.559,235.893 169.657,235.85C169.756,235.807 169.866,235.785 169.989,235.785C170.122,235.785 170.237,235.809 170.336,235.856C170.434,235.903 170.515,235.968 170.58,236.049C170.644,236.131 170.692,236.226 170.724,236.335C170.756,236.443 170.771,236.559 170.771,236.682L170.771,236.758L169.657,236.758L169.657,236.758ZM170.296,236.415C170.288,236.335 170.257,236.269 170.204,236.218C170.15,236.167 170.083,236.141 170.001,236.141C169.903,236.141 169.828,236.164 169.776,236.209C169.723,236.254 169.685,236.323 169.66,236.415L170.296,236.415Z" style="fill:white;fill-rule:nonzero;"/>
        <path d="M171.302,236.863C171.317,236.967 171.351,237.037 171.405,237.073C171.459,237.109 171.538,237.127 171.64,237.127C171.665,237.127 171.69,237.125 171.717,237.122C171.743,237.119 171.768,237.112 171.79,237.1C171.813,237.089 171.831,237.074 171.846,237.054C171.86,237.035 171.867,237.01 171.867,236.979C171.867,236.932 171.844,236.897 171.796,236.873C171.749,236.85 171.691,236.83 171.622,236.815C171.552,236.8 171.476,236.783 171.394,236.766C171.313,236.749 171.237,236.722 171.167,236.686C171.098,236.65 171.039,236.602 170.992,236.54C170.945,236.479 170.922,236.395 170.922,236.289C170.922,236.195 170.941,236.116 170.98,236.052C171.019,235.989 171.07,235.937 171.132,235.897C171.194,235.858 171.266,235.829 171.345,235.812C171.425,235.794 171.505,235.785 171.585,235.785C171.673,235.785 171.758,235.795 171.839,235.815C171.921,235.834 171.994,235.865 172.057,235.908C172.121,235.951 172.173,236.007 172.214,236.075C172.255,236.144 172.277,236.227 172.281,236.326L171.858,236.347C171.856,236.304 171.846,236.268 171.829,236.24C171.811,236.211 171.79,236.187 171.764,236.169C171.739,236.151 171.71,236.137 171.677,236.129C171.644,236.121 171.611,236.117 171.579,236.117C171.558,236.117 171.535,236.118 171.508,236.122C171.481,236.125 171.457,236.131 171.436,236.14C171.414,236.149 171.396,236.162 171.381,236.18C171.365,236.197 171.358,236.221 171.358,236.252C171.358,236.293 171.382,236.324 171.43,236.344C171.478,236.364 171.538,236.382 171.609,236.398C171.681,236.413 171.759,236.43 171.843,236.448C171.926,236.467 172.004,236.494 172.076,236.531C172.147,236.568 172.207,236.618 172.255,236.682C172.303,236.745 172.327,236.829 172.327,236.933C172.327,237.036 172.306,237.121 172.264,237.189C172.223,237.258 172.167,237.313 172.099,237.354C172.03,237.395 171.953,237.424 171.867,237.441C171.781,237.459 171.695,237.467 171.609,237.467C171.525,237.467 171.439,237.457 171.351,237.437C171.263,237.416 171.184,237.383 171.114,237.338C171.043,237.293 170.985,237.235 170.94,237.162C170.895,237.089 170.873,237.001 170.873,236.896L170.873,236.878L171.302,236.863L171.302,236.863Z" style="fill:white;fill-rule:nonzero;"/>
        <path d="M152.827,241.002L152.536,241.002L152.536,238.835L153.923,238.835L153.923,239.102L152.827,239.102L152.827,239.762L153.828,239.762L153.828,240.017L152.827,240.017L152.827,241.002Z" style="fill:white;fill-rule:nonzero;"/>
        <path d="M155.513,240.21C155.513,240.335 155.496,240.448 155.464,240.549C155.431,240.65 155.382,240.737 155.316,240.808C155.251,240.88 155.17,240.935 155.075,240.974C154.98,241.013 154.869,241.032 154.742,241.032C154.613,241.032 154.502,241.012 154.409,240.971C154.316,240.93 154.239,240.874 154.178,240.802C154.116,240.731 154.071,240.645 154.043,240.544C154.014,240.444 154,240.335 154,240.216C154,240.093 154.016,239.981 154.047,239.878C154.079,239.776 154.127,239.688 154.19,239.614C154.253,239.541 154.333,239.484 154.429,239.443C154.525,239.402 154.637,239.381 154.764,239.381C154.891,239.381 155.001,239.402 155.094,239.444C155.187,239.486 155.265,239.544 155.327,239.618C155.389,239.691 155.436,239.779 155.467,239.88C155.497,239.981 155.513,240.091 155.513,240.21L155.513,240.21ZM155.224,240.21C155.224,240.132 155.216,240.057 155.2,239.986C155.183,239.914 155.156,239.851 155.118,239.796C155.08,239.74 155.031,239.696 154.971,239.664C154.911,239.631 154.837,239.614 154.752,239.614C154.664,239.614 154.589,239.631 154.529,239.665C154.469,239.699 154.421,239.744 154.385,239.8C154.349,239.856 154.323,239.921 154.308,239.993C154.293,240.066 154.285,240.141 154.285,240.219C154.285,240.299 154.293,240.374 154.31,240.445C154.326,240.515 154.353,240.578 154.389,240.632C154.426,240.686 154.475,240.729 154.537,240.761C154.598,240.792 154.673,240.808 154.761,240.808C154.849,240.808 154.922,240.791 154.982,240.758C155.041,240.724 155.089,240.679 155.124,240.624C155.16,240.569 155.186,240.505 155.201,240.432C155.216,240.36 155.224,240.286 155.224,240.21L155.224,240.21Z" style="fill:white;fill-rule:nonzero;"/>
        <path d="M156.096,239.412L156.096,239.682C156.137,239.59 156.194,239.52 156.269,239.472C156.344,239.424 156.431,239.4 156.532,239.4C156.552,239.4 156.572,239.401 156.593,239.403C156.613,239.405 156.634,239.408 156.654,239.412L156.654,239.682C156.638,239.68 156.623,239.678 156.608,239.677C156.594,239.676 156.579,239.676 156.562,239.676C156.515,239.676 156.468,239.684 156.42,239.699C156.371,239.714 156.328,239.736 156.289,239.765C156.246,239.798 156.213,239.834 156.189,239.874C156.166,239.914 156.148,239.956 156.136,240.001C156.123,240.046 156.116,240.093 156.113,240.141C156.11,240.189 156.108,240.237 156.108,240.287L156.108,241.002L155.832,241.002L155.832,239.412L156.096,239.412Z" style="fill:white;fill-rule:nonzero;"/>
        <path d="M157.563,239.412L157.563,239.645L157.277,239.645L157.277,240.529C157.277,240.562 157.278,240.593 157.28,240.623C157.282,240.652 157.29,240.679 157.302,240.702C157.314,240.726 157.333,240.744 157.357,240.758C157.382,240.771 157.415,240.778 157.458,240.778C157.479,240.778 157.5,240.777 157.523,240.776C157.545,240.775 157.567,240.771 157.587,240.765L157.587,240.992C157.555,240.999 157.522,241.004 157.491,241.008C157.459,241.012 157.426,241.014 157.391,241.014C157.252,241.014 157.151,240.984 157.09,240.923C157.029,240.863 156.998,240.765 156.998,240.63L156.998,239.645L156.734,239.645L156.734,239.412L156.998,239.412L156.998,238.936L157.277,238.936L157.277,239.412L157.563,239.412Z" style="fill:white;fill-rule:nonzero;"/>
        <path d="M158.158,239.151L157.879,239.151L157.879,238.835L158.158,238.835L158.158,239.151ZM158.158,241.002L157.879,241.002L157.879,239.412L158.158,239.412L158.158,241.002Z" style="fill:white;fill-rule:nonzero;"/>
        <path d="M158.928,239.645L158.928,241.002L158.649,241.002L158.649,239.645L158.391,239.645L158.391,239.412L158.649,239.412L158.649,239.292C158.649,239.133 158.685,239.016 158.758,238.941C158.831,238.866 158.95,238.829 159.116,238.829C159.138,238.829 159.161,238.83 159.185,238.832C159.208,238.834 159.231,238.836 159.254,238.838L159.254,239.077C159.237,239.075 159.217,239.074 159.192,239.074C159.168,239.074 159.147,239.074 159.131,239.074C159.053,239.074 159,239.088 158.971,239.114C158.943,239.141 158.928,239.193 158.928,239.271L158.928,239.412L159.254,239.412L159.254,239.645L158.928,239.645L158.928,239.645Z" style="fill:white;fill-rule:nonzero;"/>
        <path d="M160.181,241.069C160.156,241.139 160.131,241.203 160.107,241.262C160.082,241.322 160.051,241.373 160.013,241.417C159.975,241.461 159.928,241.496 159.871,241.52C159.813,241.545 159.741,241.557 159.653,241.557C159.583,241.557 159.513,241.549 159.441,241.533L159.441,241.272C159.476,241.278 159.509,241.285 159.541,241.293C159.572,241.301 159.606,241.305 159.64,241.305C159.685,241.305 159.723,241.298 159.752,241.284C159.782,241.27 159.807,241.25 159.828,241.226C159.848,241.201 159.865,241.173 159.88,241.141C159.894,241.11 159.907,241.076 159.92,241.042L159.935,241.002L159.303,239.412L159.616,239.412L160.064,240.652L160.466,239.412L160.77,239.412L160.181,241.069L160.181,241.069Z" style="fill:white;fill-rule:nonzero;"/>
        <path d="M162.593,238.835C162.652,238.835 162.712,238.836 162.772,238.84C162.833,238.843 162.892,238.851 162.952,238.866C163.079,238.894 163.185,238.941 163.271,239.007C163.357,239.072 163.427,239.151 163.481,239.243C163.535,239.335 163.574,239.437 163.598,239.548C163.621,239.66 163.633,239.775 163.633,239.894C163.633,240 163.624,240.105 163.607,240.208C163.59,240.312 163.559,240.409 163.516,240.5C163.473,240.591 163.417,240.673 163.346,240.745C163.276,240.818 163.187,240.876 163.081,240.919C162.989,240.958 162.887,240.981 162.777,240.989C162.666,240.998 162.562,241.002 162.464,241.002L161.878,241.002L161.878,238.835L162.593,238.835ZM162.166,240.744L162.467,240.744C162.536,240.744 162.614,240.741 162.7,240.736C162.786,240.731 162.862,240.716 162.927,240.692C163.011,240.659 163.08,240.613 163.133,240.555C163.186,240.497 163.228,240.431 163.259,240.359C163.289,240.286 163.31,240.209 163.322,240.127C163.333,240.045 163.338,239.964 163.338,239.885C163.338,239.617 163.276,239.417 163.15,239.286C163.024,239.155 162.846,239.09 162.617,239.09L162.166,239.09L162.166,240.744Z" style="fill:white;fill-rule:nonzero;"/>
        <path d="M164.21,240.305C164.21,240.37 164.22,240.433 164.239,240.492C164.259,240.552 164.288,240.604 164.327,240.65C164.366,240.696 164.413,240.733 164.469,240.761C164.526,240.788 164.591,240.802 164.664,240.802C164.775,240.802 164.864,240.776 164.933,240.722C165.001,240.669 165.046,240.59 165.066,240.486L165.355,240.508C165.34,240.598 165.312,240.675 165.27,240.741C165.228,240.806 165.177,240.86 165.115,240.903C165.054,240.946 164.983,240.979 164.904,241C164.824,241.022 164.738,241.032 164.646,241.032C164.511,241.032 164.397,241.008 164.304,240.96C164.211,240.912 164.135,240.849 164.078,240.771C164.021,240.694 163.98,240.606 163.955,240.509C163.931,240.412 163.918,240.313 163.918,240.213C163.918,240.098 163.934,239.991 163.966,239.891C163.998,239.79 164.045,239.702 164.109,239.627C164.172,239.551 164.25,239.491 164.342,239.447C164.434,239.403 164.54,239.381 164.661,239.381C164.784,239.381 164.889,239.402 164.977,239.444C165.065,239.486 165.138,239.544 165.197,239.618C165.255,239.691 165.298,239.777 165.326,239.875C165.353,239.974 165.367,240.08 165.367,240.195C165.367,240.209 165.367,240.223 165.367,240.237C165.367,240.252 165.366,240.266 165.364,240.28L164.21,240.28L164.21,240.305ZM165.072,240.053C165.07,239.994 165.06,239.938 165.042,239.886C165.023,239.834 164.997,239.788 164.963,239.75C164.93,239.711 164.888,239.68 164.839,239.657C164.79,239.635 164.734,239.624 164.67,239.624C164.531,239.624 164.425,239.663 164.353,239.742C164.28,239.821 164.233,239.924 164.21,240.053L165.072,240.053Z" style="fill:white;fill-rule:nonzero;"/>
        <path d="M167.601,241.002L167.601,240.106C167.601,240.052 167.6,239.998 167.597,239.941C167.594,239.885 167.583,239.834 167.566,239.788C167.549,239.742 167.52,239.704 167.482,239.676C167.443,239.647 167.387,239.633 167.316,239.633C167.246,239.633 167.187,239.645 167.138,239.668C167.089,239.692 167.049,239.724 167.018,239.765C166.987,239.806 166.965,239.854 166.951,239.909C166.936,239.964 166.929,240.023 166.929,240.084L166.929,241.002L166.647,241.002L166.647,239.974C166.647,239.875 166.624,239.794 166.579,239.73C166.534,239.665 166.457,239.633 166.346,239.633C166.225,239.633 166.131,239.674 166.064,239.757C165.996,239.84 165.962,239.959 165.962,240.115L165.962,241.002L165.686,241.002L165.686,239.412L165.962,239.412L165.962,239.602C166.02,239.526 166.089,239.471 166.17,239.436C166.25,239.402 166.338,239.384 166.432,239.384C166.524,239.384 166.607,239.405 166.682,239.447C166.757,239.489 166.815,239.552 166.855,239.636C166.913,239.554 166.984,239.492 167.069,239.449C167.154,239.406 167.245,239.384 167.343,239.384C167.448,239.384 167.534,239.398 167.603,239.424C167.671,239.451 167.727,239.49 167.768,239.542C167.81,239.595 167.84,239.657 167.857,239.731C167.875,239.805 167.884,239.89 167.884,239.986L167.884,241.002L167.601,241.002L167.601,241.002Z" style="fill:white;fill-rule:nonzero;"/>
        <path d="M169.716,240.21C169.716,240.335 169.699,240.448 169.667,240.549C169.634,240.65 169.585,240.737 169.519,240.808C169.454,240.88 169.374,240.935 169.278,240.974C169.183,241.013 169.072,241.032 168.945,241.032C168.817,241.032 168.706,241.012 168.612,240.971C168.519,240.93 168.442,240.874 168.381,240.802C168.319,240.731 168.274,240.645 168.246,240.544C168.217,240.444 168.203,240.335 168.203,240.216C168.203,240.093 168.219,239.981 168.25,239.878C168.282,239.776 168.33,239.688 168.393,239.614C168.456,239.541 168.536,239.484 168.632,239.443C168.729,239.402 168.84,239.381 168.967,239.381C169.094,239.381 169.204,239.402 169.297,239.444C169.39,239.486 169.468,239.544 169.53,239.618C169.592,239.691 169.639,239.779 169.67,239.88C169.7,239.981 169.716,240.091 169.716,240.21L169.716,240.21ZM169.427,240.21C169.427,240.132 169.419,240.057 169.403,239.986C169.386,239.914 169.359,239.851 169.321,239.796C169.284,239.74 169.234,239.696 169.174,239.664C169.114,239.631 169.041,239.614 168.955,239.614C168.867,239.614 168.792,239.631 168.732,239.665C168.672,239.699 168.624,239.744 168.588,239.8C168.552,239.856 168.527,239.921 168.511,239.993C168.496,240.066 168.488,240.141 168.488,240.219C168.488,240.299 168.496,240.374 168.513,240.445C168.529,240.515 168.556,240.578 168.592,240.632C168.629,240.686 168.678,240.729 168.74,240.761C168.801,240.792 168.876,240.808 168.964,240.808C169.052,240.808 169.125,240.791 169.185,240.758C169.244,240.724 169.292,240.679 169.328,240.624C169.363,240.569 169.389,240.505 169.404,240.432C169.42,240.36 169.427,240.286 169.427,240.21L169.427,240.21Z" style="fill:white;fill-rule:nonzero;"/>
        <path d="M171.385,240.434C171.322,240.833 171.09,241.032 170.689,241.032C170.564,241.032 170.456,241.011 170.365,240.968C170.274,240.925 170.198,240.866 170.138,240.791C170.077,240.717 170.033,240.629 170.004,240.527C169.976,240.426 169.961,240.318 169.961,240.204C169.961,240.089 169.976,239.982 170.006,239.881C170.035,239.781 170.081,239.694 170.142,239.621C170.204,239.547 170.28,239.489 170.372,239.446C170.465,239.403 170.572,239.381 170.695,239.381C170.877,239.381 171.026,239.425 171.141,239.512C171.257,239.599 171.328,239.735 171.355,239.921L171.069,239.964C171.057,239.856 171.018,239.77 170.953,239.707C170.887,239.643 170.799,239.611 170.689,239.611C170.607,239.611 170.538,239.629 170.481,239.664C170.425,239.698 170.38,239.744 170.346,239.802C170.313,239.859 170.289,239.922 170.274,239.992C170.26,240.062 170.253,240.132 170.253,240.204C170.253,240.277 170.26,240.349 170.274,240.42C170.289,240.491 170.313,240.554 170.346,240.609C170.38,240.664 170.426,240.709 170.483,240.744C170.54,240.779 170.612,240.796 170.698,240.796C170.821,240.796 170.916,240.76 170.983,240.687C171.051,240.614 171.091,240.521 171.103,240.406L171.385,240.434Z" style="fill:white;fill-rule:nonzero;"/>
        <path d="M171.932,239.412L171.932,239.682C171.972,239.59 172.03,239.52 172.105,239.472C172.18,239.424 172.267,239.4 172.367,239.4C172.388,239.4 172.408,239.401 172.429,239.403C172.449,239.405 172.47,239.408 172.49,239.412L172.49,239.682C172.474,239.68 172.458,239.678 172.444,239.677C172.43,239.676 172.414,239.676 172.398,239.676C172.351,239.676 172.303,239.684 172.255,239.699C172.207,239.714 172.164,239.736 172.125,239.765C172.082,239.798 172.049,239.834 172.025,239.874C172.002,239.914 171.984,239.956 171.971,240.001C171.959,240.046 171.951,240.093 171.948,240.141C171.945,240.189 171.944,240.237 171.944,240.287L171.944,241.002L171.668,241.002L171.668,239.412L171.932,239.412Z" style="fill:white;fill-rule:nonzero;"/>
        <path d="M173.896,241.002C173.82,241.002 173.759,240.99 173.713,240.966C173.667,240.943 173.641,240.888 173.635,240.802C173.565,240.88 173.489,240.938 173.406,240.976C173.323,241.013 173.23,241.032 173.125,241.032C173.048,241.032 172.976,241.022 172.91,241.002C172.845,240.981 172.788,240.95 172.74,240.91C172.692,240.869 172.655,240.817 172.628,240.756C172.602,240.695 172.588,240.623 172.588,240.541C172.588,240.451 172.604,240.379 172.636,240.323C172.668,240.268 172.711,240.224 172.765,240.191C172.819,240.159 172.88,240.134 172.949,240.116C173.017,240.099 173.088,240.083 173.162,240.069L173.451,240.013C173.473,240.009 173.495,240.005 173.517,240.001C173.538,239.997 173.557,239.99 173.573,239.981C173.59,239.972 173.603,239.959 173.613,239.943C173.624,239.926 173.629,239.903 173.629,239.872C173.629,239.817 173.619,239.773 173.599,239.739C173.58,239.705 173.553,239.678 173.52,239.657C173.486,239.637 173.448,239.623 173.406,239.616C173.364,239.609 173.32,239.605 173.273,239.605C173.17,239.605 173.087,239.628 173.024,239.673C172.961,239.718 172.929,239.796 172.929,239.906L172.643,239.906C172.643,239.857 172.652,239.806 172.668,239.753C172.691,239.679 172.723,239.618 172.766,239.57C172.809,239.522 172.859,239.484 172.915,239.456C172.971,239.429 173.033,239.409 173.099,239.398C173.166,239.387 173.234,239.381 173.303,239.381C173.354,239.381 173.407,239.385 173.46,239.392C173.513,239.399 173.563,239.412 173.61,239.43C173.657,239.449 173.701,239.474 173.741,239.506C173.781,239.537 173.813,239.578 173.837,239.627C173.86,239.674 173.874,239.726 173.879,239.783C173.884,239.841 173.886,239.896 173.886,239.949L173.886,240.6C173.886,240.632 173.887,240.661 173.889,240.686C173.892,240.71 173.898,240.731 173.908,240.747C173.918,240.763 173.934,240.776 173.955,240.784C173.977,240.792 174.007,240.796 174.046,240.796L174.046,241.002L173.896,241.002L173.896,241.002ZM173.626,240.179C173.56,240.202 173.494,240.221 173.426,240.236C173.359,240.251 173.291,240.266 173.224,240.28C173.183,240.289 173.142,240.298 173.101,240.31C173.06,240.321 173.023,240.336 172.99,240.356C172.958,240.375 172.931,240.4 172.91,240.431C172.89,240.462 172.88,240.501 172.88,240.551C172.88,240.593 172.889,240.631 172.906,240.664C172.923,240.697 172.947,240.723 172.976,240.744C173.006,240.764 173.039,240.78 173.076,240.79C173.113,240.8 173.151,240.805 173.19,240.805C173.229,240.805 173.27,240.8 173.313,240.788C173.355,240.777 173.393,240.761 173.426,240.741C173.512,240.688 173.567,240.624 173.59,240.549C173.614,240.474 173.626,240.39 173.626,240.296L173.626,240.179Z" style="fill:white;fill-rule:nonzero;"/>
        <path d="M175.673,240.434C175.609,240.833 175.377,241.032 174.976,241.032C174.851,241.032 174.743,241.011 174.652,240.968C174.561,240.925 174.485,240.866 174.425,240.791C174.365,240.717 174.32,240.629 174.292,240.527C174.263,240.426 174.249,240.318 174.249,240.204C174.249,240.089 174.263,239.982 174.293,239.881C174.323,239.781 174.368,239.694 174.43,239.621C174.491,239.547 174.568,239.489 174.66,239.446C174.752,239.403 174.859,239.381 174.982,239.381C175.164,239.381 175.313,239.425 175.429,239.512C175.544,239.599 175.615,239.735 175.642,239.921L175.356,239.964C175.344,239.856 175.305,239.77 175.24,239.707C175.174,239.643 175.086,239.611 174.976,239.611C174.894,239.611 174.825,239.629 174.769,239.664C174.712,239.698 174.667,239.744 174.634,239.802C174.6,239.859 174.576,239.922 174.562,239.992C174.547,240.062 174.54,240.132 174.54,240.204C174.54,240.277 174.547,240.349 174.562,240.42C174.576,240.491 174.6,240.554 174.634,240.609C174.667,240.664 174.713,240.709 174.77,240.744C174.828,240.779 174.899,240.796 174.985,240.796C175.108,240.796 175.203,240.76 175.271,240.687C175.338,240.614 175.378,240.521 175.39,240.406L175.673,240.434Z" style="fill:white;fill-rule:nonzero;"/>
        <path d="M176.655,241.069C176.63,241.139 176.606,241.203 176.581,241.262C176.556,241.322 176.525,241.373 176.487,241.417C176.45,241.461 176.402,241.496 176.345,241.52C176.287,241.545 176.215,241.557 176.127,241.557C176.057,241.557 175.987,241.549 175.915,241.533L175.915,241.272C175.95,241.278 175.983,241.285 176.015,241.293C176.046,241.301 176.08,241.305 176.114,241.305C176.159,241.305 176.197,241.298 176.226,241.284C176.256,241.27 176.281,241.25 176.302,241.226C176.322,241.201 176.34,241.173 176.354,241.141C176.368,241.11 176.381,241.076 176.394,241.042L176.409,241.002L175.777,239.412L176.09,239.412L176.538,240.652L176.94,239.412L177.244,239.412L176.655,241.069L176.655,241.069Z" style="fill:white;fill-rule:nonzero;"/>
        <path d="M179.091,239.099L179.091,241.002L178.8,241.002L178.8,239.099L178.149,239.099L178.149,238.835L179.736,238.835L179.736,239.099L179.091,239.099L179.091,239.099Z" style="fill:white;fill-rule:nonzero;"/>
        <path d="M181.092,240.21C181.092,240.335 181.076,240.448 181.043,240.549C181.01,240.65 180.961,240.737 180.896,240.808C180.83,240.88 180.75,240.935 180.655,240.974C180.56,241.013 180.449,241.032 180.322,241.032C180.193,241.032 180.082,241.012 179.989,240.971C179.896,240.93 179.819,240.874 179.757,240.802C179.696,240.731 179.651,240.645 179.622,240.544C179.594,240.444 179.579,240.335 179.579,240.216C179.579,240.093 179.595,239.981 179.627,239.878C179.659,239.776 179.706,239.688 179.77,239.614C179.833,239.541 179.913,239.484 180.009,239.443C180.105,239.402 180.217,239.381 180.343,239.381C180.47,239.381 180.58,239.402 180.673,239.444C180.766,239.486 180.844,239.544 180.907,239.618C180.969,239.691 181.016,239.779 181.046,239.88C181.077,239.981 181.092,240.091 181.092,240.21L181.092,240.21ZM180.804,240.21C180.804,240.132 180.796,240.057 180.779,239.986C180.763,239.914 180.736,239.851 180.698,239.796C180.66,239.74 180.611,239.696 180.551,239.664C180.49,239.631 180.417,239.614 180.331,239.614C180.243,239.614 180.169,239.631 180.109,239.665C180.048,239.699 180,239.744 179.964,239.8C179.929,239.856 179.903,239.921 179.888,239.993C179.872,240.066 179.865,240.141 179.865,240.219C179.865,240.299 179.873,240.374 179.889,240.445C179.906,240.515 179.932,240.578 179.969,240.632C180.006,240.686 180.055,240.729 180.116,240.761C180.178,240.792 180.252,240.808 180.34,240.808C180.428,240.808 180.502,240.791 180.561,240.758C180.621,240.724 180.668,240.679 180.704,240.624C180.74,240.569 180.765,240.505 180.781,240.432C180.796,240.36 180.804,240.286 180.804,240.21L180.804,240.21Z" style="fill:white;fill-rule:nonzero;"/>
        <path d="M182.716,239.412L182.716,240.864C182.716,240.988 182.704,241.095 182.68,241.183C182.657,241.271 182.619,241.343 182.565,241.399C182.512,241.455 182.442,241.496 182.355,241.522C182.268,241.547 182.161,241.56 182.034,241.56C181.944,241.56 181.862,241.551 181.787,241.533C181.713,241.514 181.648,241.484 181.593,241.444C181.537,241.403 181.494,241.349 181.462,241.284C181.43,241.219 181.411,241.138 181.405,241.042L181.691,241.042C181.691,241.097 181.7,241.143 181.72,241.18C181.739,241.216 181.766,241.246 181.8,241.269C181.833,241.291 181.872,241.307 181.916,241.316C181.96,241.325 182.006,241.33 182.053,241.33C182.149,241.33 182.224,241.316 182.278,241.289C182.333,241.261 182.373,241.223 182.398,241.173C182.424,241.124 182.439,241.067 182.444,241.002C182.449,240.936 182.452,240.867 182.452,240.793L182.452,240.738C182.403,240.811 182.334,240.866 182.245,240.9C182.156,240.935 182.068,240.953 181.982,240.953C181.872,240.953 181.776,240.932 181.694,240.891C181.612,240.85 181.544,240.795 181.49,240.725C181.436,240.656 181.396,240.575 181.37,240.483C181.344,240.391 181.332,240.294 181.332,240.191C181.332,240.081 181.346,239.977 181.375,239.878C181.403,239.78 181.446,239.695 181.504,239.624C181.561,239.552 181.633,239.495 181.72,239.453C181.807,239.411 181.908,239.39 182.022,239.39C182.114,239.39 182.198,239.406 182.274,239.438C182.35,239.47 182.413,239.525 182.464,239.605L182.464,239.412L182.716,239.412ZM182.455,240.182C182.455,240.102 182.448,240.029 182.433,239.963C182.419,239.896 182.396,239.839 182.364,239.789C182.333,239.74 182.291,239.702 182.239,239.674C182.186,239.647 182.123,239.633 182.05,239.633C181.97,239.633 181.903,239.649 181.849,239.68C181.795,239.712 181.751,239.754 181.717,239.805C181.683,239.856 181.659,239.914 181.643,239.98C181.628,240.045 181.62,240.112 181.62,240.179C181.62,240.249 181.627,240.315 181.642,240.379C181.656,240.442 181.679,240.498 181.712,240.547C181.745,240.597 181.788,240.636 181.841,240.666C181.894,240.695 181.96,240.71 182.038,240.71C182.115,240.71 182.181,240.695 182.234,240.666C182.287,240.636 182.33,240.597 182.363,240.547C182.396,240.498 182.419,240.442 182.433,240.379C182.448,240.315 182.455,240.25 182.455,240.182L182.455,240.182Z" style="fill:white;fill-rule:nonzero;"/>
        <path d="M183.323,240.305C183.323,240.37 183.333,240.433 183.353,240.492C183.372,240.552 183.401,240.604 183.44,240.65C183.479,240.696 183.526,240.733 183.583,240.761C183.639,240.788 183.704,240.802 183.778,240.802C183.888,240.802 183.978,240.776 184.046,240.722C184.115,240.669 184.159,240.59 184.18,240.486L184.468,240.508C184.454,240.598 184.426,240.675 184.384,240.741C184.342,240.806 184.29,240.86 184.229,240.903C184.167,240.946 184.097,240.979 184.017,241C183.937,241.022 183.851,241.032 183.759,241.032C183.624,241.032 183.51,241.008 183.417,240.96C183.324,240.912 183.249,240.849 183.191,240.771C183.134,240.694 183.093,240.606 183.069,240.509C183.044,240.412 183.032,240.313 183.032,240.213C183.032,240.098 183.048,239.991 183.079,239.891C183.111,239.79 183.159,239.702 183.222,239.627C183.286,239.551 183.363,239.491 183.455,239.447C183.547,239.403 183.654,239.381 183.775,239.381C183.897,239.381 184.003,239.402 184.091,239.444C184.179,239.486 184.252,239.544 184.31,239.618C184.368,239.691 184.411,239.777 184.439,239.875C184.467,239.974 184.48,240.08 184.48,240.195C184.48,240.209 184.48,240.223 184.48,240.237C184.48,240.252 184.479,240.266 184.477,240.28L183.323,240.28L183.323,240.305ZM184.186,240.053C184.184,239.994 184.174,239.938 184.155,239.886C184.137,239.834 184.111,239.788 184.077,239.75C184.043,239.711 184.002,239.68 183.953,239.657C183.903,239.635 183.847,239.624 183.784,239.624C183.645,239.624 183.539,239.663 183.466,239.742C183.393,239.821 183.346,239.924 183.323,240.053L184.186,240.053Z" style="fill:white;fill-rule:nonzero;"/>
        <path d="M185.475,239.412L185.475,239.645L185.189,239.645L185.189,240.529C185.189,240.562 185.19,240.593 185.192,240.623C185.194,240.652 185.202,240.679 185.214,240.702C185.226,240.726 185.245,240.744 185.269,240.758C185.294,240.771 185.327,240.778 185.37,240.778C185.391,240.778 185.412,240.777 185.435,240.776C185.457,240.775 185.479,240.771 185.499,240.765L185.499,240.992C185.467,240.999 185.434,241.004 185.403,241.008C185.371,241.012 185.338,241.014 185.303,241.014C185.164,241.014 185.064,240.984 185.002,240.923C184.941,240.863 184.91,240.765 184.91,240.63L184.91,239.645L184.646,239.645L184.646,239.412L184.91,239.412L184.91,238.936L185.189,238.936L185.189,239.412L185.475,239.412Z" style="fill:white;fill-rule:nonzero;"/>
        <path d="M186.813,241.002L186.813,240.066C186.813,240.01 186.81,239.957 186.805,239.906C186.8,239.855 186.787,239.809 186.767,239.769C186.746,239.73 186.716,239.698 186.675,239.674C186.634,239.651 186.579,239.639 186.509,239.639C186.368,239.639 186.26,239.681 186.185,239.765C186.111,239.849 186.073,239.954 186.073,240.081L186.073,241.002L185.791,241.002L185.791,238.835L186.073,238.835L186.073,239.593C186.141,239.515 186.217,239.462 186.302,239.432C186.387,239.402 186.478,239.387 186.577,239.387C186.636,239.387 186.695,239.395 186.753,239.41C186.811,239.426 186.864,239.452 186.911,239.489C186.958,239.523 186.994,239.562 187.018,239.604C187.043,239.646 187.061,239.69 187.072,239.737C187.083,239.784 187.09,239.833 187.092,239.883C187.094,239.933 187.095,239.985 187.095,240.038L187.095,241.002L186.813,241.002L186.813,241.002Z" style="fill:white;fill-rule:nonzero;"/>
        <path d="M187.703,240.305C187.703,240.37 187.713,240.433 187.732,240.492C187.751,240.552 187.781,240.604 187.819,240.65C187.858,240.696 187.906,240.733 187.962,240.761C188.018,240.788 188.083,240.802 188.157,240.802C188.267,240.802 188.357,240.776 188.426,240.722C188.494,240.669 188.539,240.59 188.559,240.486L188.848,240.508C188.833,240.598 188.805,240.675 188.763,240.741C188.721,240.806 188.67,240.86 188.608,240.903C188.547,240.946 188.476,240.979 188.396,241C188.317,241.022 188.231,241.032 188.139,241.032C188.004,241.032 187.89,241.008 187.796,240.96C187.703,240.912 187.628,240.849 187.571,240.771C187.514,240.694 187.473,240.606 187.448,240.509C187.424,240.412 187.411,240.313 187.411,240.213C187.411,240.098 187.427,239.991 187.459,239.891C187.491,239.79 187.538,239.702 187.602,239.627C187.665,239.551 187.743,239.491 187.835,239.447C187.927,239.403 188.033,239.381 188.154,239.381C188.277,239.381 188.382,239.402 188.47,239.444C188.558,239.486 188.631,239.544 188.689,239.618C188.748,239.691 188.791,239.777 188.818,239.875C188.846,239.974 188.86,240.08 188.86,240.195C188.86,240.209 188.86,240.223 188.86,240.237C188.86,240.252 188.859,240.266 188.857,240.28L187.703,240.28L187.703,240.305ZM188.565,240.053C188.563,239.994 188.553,239.938 188.534,239.886C188.516,239.834 188.49,239.788 188.456,239.75C188.422,239.711 188.381,239.68 188.332,239.657C188.283,239.635 188.227,239.624 188.163,239.624C188.024,239.624 187.918,239.663 187.846,239.742C187.773,239.821 187.725,239.924 187.703,240.053L188.565,240.053Z" style="fill:white;fill-rule:nonzero;"/>
        <path d="M189.443,239.412L189.443,239.682C189.484,239.59 189.542,239.52 189.616,239.472C189.691,239.424 189.778,239.4 189.879,239.4C189.899,239.4 189.92,239.401 189.94,239.403C189.961,239.405 189.981,239.408 190.001,239.412L190.001,239.682C189.985,239.68 189.97,239.678 189.955,239.677C189.941,239.676 189.926,239.676 189.909,239.676C189.862,239.676 189.815,239.684 189.767,239.699C189.719,239.714 189.675,239.736 189.636,239.765C189.593,239.798 189.56,239.834 189.537,239.874C189.513,239.914 189.495,239.956 189.483,240.001C189.471,240.046 189.463,240.093 189.46,240.141C189.457,240.189 189.455,240.237 189.455,240.287L189.455,241.002L189.179,241.002L189.179,239.412L189.443,239.412Z" style="fill:white;fill-rule:nonzero;"/>
    </g>
    <g>
        <rect x="783.045" y="538.031" width="519.765" height="17.84" style="fill:rgb(255,19,63);fill-rule:nonzero;"/>
        <rect x="783.045" y="574.184" width="519.765" height="17.84" style="fill:rgb(255,19,63);fill-rule:nonzero;"/>
        <rect x="783.045" y="610.337" width="519.765" height="17.84" style="fill:rgb(255,19,63);fill-rule:nonzero;"/>
        <rect x="783.045" y="646.49" width="519.765" height="17.84" style="fill:rgb(255,19,63);fill-rule:nonzero;"/>
        <rect x="783.045" y="682.643" width="519.765" height="17.84" style="fill:rgb(255,19,63);fill-rule:nonzero;"/>
        <rect x="783.045" y="718.796" width="519.765" height="17.84" style="fill:rgb(255,19,63);fill-rule:nonzero;"/>
        <rect x="783.045" y="754.949" width="519.765" height="17.84" style="fill:rgb(255,19,63);fill-rule:nonzero;"/>
        <rect x="783.045" y="556.108" width="519.765" height="17.84" style="fill:white;fill-rule:nonzero;"/>
        <rect x="783.045" y="592.261" width="519.765" height="17.84" style="fill:white;fill-rule:nonzero;"/>
        <rect x="783.045" y="628.414" width="519.765" height="17.84" style="fill:white;fill-rule:nonzero;"/>
        <rect x="783.045" y="664.567" width="519.765" height="17.84" style="fill:white;fill-rule:nonzero;"/>
        <rect x="783.045" y="700.719" width="519.765" height="17.84" style="fill:white;fill-rule:nonzero;"/>
        <rect x="783.045" y="736.872" width="519.765" height="17.84" style="fill:white;fill-rule:nonzero;"/>
        <g>
            <g>
                <path d="M782.992,766.908L796.134,766.908L796.134,771.126L805.151,771.126L805.151,775.946L796.134,775.946L796.134,780.164L782.992,780.164L782.992,766.908ZM782.992,748.832L796.134,748.832L796.134,753.049L805.151,753.049L805.151,757.87L796.134,757.87L796.134,762.088L782.992,762.088L782.992,748.832ZM782.992,730.755L796.134,730.755L796.134,734.973L805.151,734.973L805.151,739.793L796.134,739.793L796.134,744.011L782.992,744.011L782.992,730.755ZM782.992,712.679L796.134,712.679L796.134,716.896L805.151,716.896L805.151,721.717L796.134,721.717L796.134,725.935L782.992,725.935L782.992,712.679ZM782.992,694.602L796.134,694.602L796.134,698.82L805.151,698.82L805.151,703.64L796.134,703.64L796.134,707.858L782.992,707.858L782.992,694.602ZM782.992,676.526L796.134,676.526L796.134,680.744L805.151,680.744L805.151,685.564L796.134,685.564L796.134,689.782L782.992,689.782L782.992,676.526ZM782.992,658.449L796.134,658.449L796.134,662.667L805.151,662.667L805.151,667.487L796.134,667.487L796.134,671.705L782.992,671.705L782.992,658.449ZM782.992,640.373L796.134,640.373L796.134,644.591L805.151,644.591L805.151,649.411L796.134,649.411L796.134,653.629L782.992,653.629L782.992,640.373ZM782.992,622.296L796.134,622.296L796.134,626.514L805.151,626.514L805.151,631.335L796.134,631.335L796.134,635.552L782.992,635.552L782.992,622.296ZM782.992,604.22L796.134,604.22L796.134,608.438L805.151,608.438L805.151,613.258L796.134,613.258L796.134,617.476L782.992,617.476L782.992,604.22ZM782.992,586.143L796.134,586.143L796.134,590.361L805.151,590.361L805.151,595.182L796.134,595.182L796.134,599.399L782.992,599.399L782.992,586.143ZM782.992,568.067L796.134,568.067L796.134,572.285L805.151,572.285L805.151,577.105L796.134,577.105L796.134,581.323L782.992,581.323L782.992,568.067ZM782.992,549.99L796.134,549.99L796.134,554.208L805.151,554.208L805.151,559.029L796.134,559.029L796.134,563.247L782.992,563.247L782.992,549.99ZM782.992,531.914L796.134,531.914L796.134,536.132L805.151,536.132L805.151,540.952L796.134,540.952L796.134,545.17L782.992,545.17L782.992,531.914Z" style="fill:rgb(0,7,255);"/>
            </g>
        </g>
    </g>
    <g>
        <rect x="8.922" y="538.031" width="519.764" height="17.84" style="fill:rgb(255,19,63);fill-rule:nonzero;"/>
        <rect x="8.922" y="574.184" width="519.764" height="17.84" style="fill:rgb(255,19,63);fill-rule:nonzero;"/>
        <rect x="8.922" y="610.337" width="519.764" height="17.84" style="fill:rgb(255,19,63);fill-rule:nonzero;"/>
        <rect x="8.922" y="646.49" width="519.764" height="17.84" style="fill:rgb(255,19,63);fill-rule:nonzero;"/>
        <rect x="8.922" y="682.643" width="519.764" height="17.84" style="fill:rgb(255,19,63);fill-rule:nonzero;"/>
        <rect x="8.922" y="718.796" width="519.764" height="17.84" style="fill:rgb(255,19,63);fill-rule:nonzero;"/>
        <rect x="8.922" y="754.949" width="519.764" height="17.84" style="fill:rgb(255,19,63);fill-rule:nonzero;"/>
        <rect x="8.922" y="556.108" width="519.764" height="17.84" style="fill:white;fill-rule:nonzero;"/>
        <rect x="8.922" y="592.261" width="519.764" height="17.84" style="fill:white;fill-rule:nonzero;"/>
        <rect x="8.922" y="628.414" width="519.764" height="17.84" style="fill:white;fill-rule:nonzero;"/>
        <rect x="8.922" y="664.567" width="519.764" height="17.84" style="fill:white;fill-rule:nonzero;"/>
        <rect x="8.922" y="700.719" width="519.764" height="17.84" style="fill:white;fill-rule:nonzero;"/>
        <rect x="8.922" y="736.872" width="519.764" height="17.84" style="fill:white;fill-rule:nonzero;"/>
        <g>
            <g>
                <path d="M528.742,780.164L515.6,780.164L515.6,775.946L506.583,775.946L506.583,771.126L515.6,771.126L515.6,766.908L528.742,766.908L528.742,780.164ZM528.742,762.088L515.6,762.088L515.6,757.87L506.583,757.87L506.583,753.049L515.6,753.049L515.6,748.832L528.742,748.832L528.742,762.088ZM528.742,744.011L515.6,744.011L515.6,739.793L506.583,739.793L506.583,734.973L515.6,734.973L515.6,730.755L528.742,730.755L528.742,744.011ZM528.742,725.935L515.6,725.935L515.6,721.717L506.583,721.717L506.583,716.896L515.6,716.896L515.6,712.679L528.742,712.679L528.742,725.935ZM528.742,707.858L515.6,707.858L515.6,703.64L506.583,703.64L506.583,698.82L515.6,698.82L515.6,694.602L528.742,694.602L528.742,707.858ZM528.742,689.782L515.6,689.782L515.6,685.564L506.583,685.564L506.583,680.744L515.6,680.744L515.6,676.526L528.742,676.526L528.742,689.782ZM528.742,671.705L515.6,671.705L515.6,667.487L506.583,667.487L506.583,662.667L515.6,662.667L515.6,658.449L528.742,658.449L528.742,671.705ZM528.742,653.629L515.6,653.629L515.6,649.411L506.583,649.411L506.583,644.591L515.6,644.591L515.6,640.373L528.742,640.373L528.742,653.629ZM528.742,635.552L515.6,635.552L515.6,631.335L506.583,631.335L506.583,626.514L515.6,626.514L515.6,622.296L528.742,622.296L528.742,635.552ZM528.742,617.476L515.6,617.476L515.6,613.258L506.583,613.258L506.583,608.438L515.6,608.438L515.6,604.22L528.742,604.22L528.742,617.476ZM528.742,599.399L515.6,599.399L515.6,595.182L506.583,595.182L506.583,590.361L515.6,590.361L515.6,586.143L528.742,586.143L528.742,599.399ZM528.742,581.323L515.6,581.323L515.6,577.105L506.583,577.105L506.583,572.285L515.6,572.285L515.6,568.067L528.742,568.067L528.742,581.323ZM528.742,563.247L515.6,563.247L515.6,559.029L506.583,559.029L506.583,554.208L515.6,554.208L515.6,549.99L528.742,549.99L528.742,563.247ZM528.742,545.17L515.6,545.17L515.6,540.952L506.583,540.952L506.583,536.132L515.6,536.132L515.6,531.914L528.742,531.914L528.742,545.17Z" style="fill:rgb(0,7,255);"/>
            </g>
        </g>
    </g>
    <g>
        <rect x="756.035" y="8.922" width="17.84" height="519.764" style="fill:rgb(255,19,63);fill-rule:nonzero;"/>
        <rect x="719.882" y="8.922" width="17.84" height="519.764" style="fill:rgb(255,19,63);fill-rule:nonzero;"/>
        <rect x="683.729" y="8.922" width="17.84" height="519.764" style="fill:rgb(255,19,63);fill-rule:nonzero;"/>
        <rect x="647.576" y="8.922" width="17.84" height="519.764" style="fill:rgb(255,19,63);fill-rule:nonzero;"/>
        <rect x="611.423" y="8.922" width="17.84" height="519.764" style="fill:rgb(255,19,63);fill-rule:nonzero;"/>
        <rect x="575.27" y="8.922" width="17.84" height="519.764" style="fill:rgb(255,19,63);fill-rule:nonzero;"/>
        <rect x="539.117" y="8.922" width="17.84" height="519.764" style="fill:rgb(255,19,63);fill-rule:nonzero;"/>
        <rect x="737.958" y="8.922" width="17.84" height="519.764" style="fill:white;fill-rule:nonzero;"/>
        <rect x="701.805" y="8.922" width="17.84" height="519.764" style="fill:white;fill-rule:nonzero;"/>
        <rect x="665.653" y="8.922" width="17.84" height="519.764" style="fill:white;fill-rule:nonzero;"/>
        <rect x="629.5" y="8.922" width="17.84" height="519.764" style="fill:white;fill-rule:nonzero;"/>
        <rect x="593.347" y="8.922" width="17.84" height="519.764" style="fill:white;fill-rule:nonzero;"/>
        <rect x="557.194" y="8.922" width="17.84" height="519.764" style="fill:white;fill-rule:nonzero;"/>
        <g>
            <g>
                <path d="M766.736,515.6L770.954,515.6L770.954,506.583L775.774,506.583L775.774,515.6L779.992,515.6L779.992,528.742L766.736,528.742L766.736,515.6ZM748.66,515.6L752.877,515.6L752.877,506.583L757.697,506.583L757.697,515.6L761.916,515.6L761.916,528.742L748.66,528.742L748.66,515.6ZM712.507,515.6L716.725,515.6L716.725,506.583L721.545,506.583L721.545,515.6L725.763,515.6L725.763,528.742L712.507,528.742L712.507,515.6ZM676.354,515.6L680.572,515.6L680.572,506.583L685.392,506.583L685.392,515.6L689.61,515.6L689.61,528.742L676.354,528.742L676.354,515.6ZM640.201,515.6L644.419,515.6L644.419,506.583L649.239,506.583L649.239,515.6L653.457,515.6L653.457,528.742L640.201,528.742L640.201,515.6ZM604.048,515.6L608.266,515.6L608.266,506.583L613.086,506.583L613.086,515.6L617.304,515.6L617.304,528.742L604.048,528.742L604.048,515.6ZM567.895,515.6L572.113,515.6L572.113,506.583L576.933,506.583L576.933,515.6L581.151,515.6L581.151,528.742L567.895,528.742L567.895,515.6ZM531.742,515.6L535.96,515.6L535.96,506.583L540.78,506.583L540.78,515.6L544.998,515.6L544.998,528.742L531.742,528.742L531.742,515.6ZM730.583,515.6L734.801,515.6L734.801,506.583L739.621,506.583L739.621,515.6L743.839,515.6L743.839,528.742L730.583,528.742L730.583,515.6ZM694.43,515.6L698.648,515.6L698.648,506.583L703.468,506.583L703.468,515.6L707.686,515.6L707.686,528.742L694.43,528.742L694.43,515.6ZM658.277,515.6L662.495,515.6L662.495,506.583L667.315,506.583L667.315,515.6L671.533,515.6L671.533,528.742L658.277,528.742L658.277,515.6ZM622.124,515.6L626.342,515.6L626.342,506.583L631.162,506.583L631.162,515.6L635.38,515.6L635.38,528.742L622.124,528.742L622.124,515.6ZM585.971,515.6L590.189,515.6L590.189,506.583L595.009,506.583L595.009,515.6L599.227,515.6L599.227,528.742L585.971,528.742L585.971,515.6ZM549.819,515.6L554.036,515.6L554.036,506.583L558.856,506.583L558.856,515.6L563.075,515.6L563.075,528.742L549.819,528.742L549.819,515.6Z" style="fill:rgb(0,7,255);"/>
            </g>
        </g>
    </g>
</svg>
